<svg xmlns="http://www.w3.org/2000/svg" width="166.519" height="109.333" viewBox="0 0 166.519 109.333"><defs><style>.a{fill:#383e93;fill-rule:evenodd;}</style></defs><g transform="translate(-891.25 -394.759)"><path class="a" d="M177.916,52.257a53.853,53.853,0,0,0-9.408-19.011A58.058,58.058,0,0,0,152.92,19.44a64.642,64.642,0,0,0-16.01-6.91c-4.3-1.165-6.854-.663-9.439-.663H65.551a26.772,26.772,0,0,0-7.658,1.069,75.052,75.052,0,0,0-17.411,6.432A51.416,51.416,0,0,0,24.5,33.2a54.474,54.474,0,0,0-3.963,60.369,52.611,52.611,0,0,0,14.033,15.86,67.45,67.45,0,0,0,17.544,9.083,39.2,39.2,0,0,0,13.44,2.578h61.919a39.191,39.191,0,0,0,13.439-2.578,67.44,67.44,0,0,0,17.545-9.083,52.65,52.65,0,0,0,14.033-15.86,54.475,54.475,0,0,0,5.431-41.314ZM117.7,79.749a51.807,51.807,0,1,1,1.326-20.162A52.018,52.018,0,0,1,117.7,79.749Z" transform="translate(878 383)"/><path class="a" d="M47.309,47.474a27.758,27.758,0,0,0,8.144,43.554v-49.7a28.062,28.062,0,0,0-8.144,6.148Zm40.868-.145A28.052,28.052,0,0,0,79.9,41.2V91.158a27.751,27.751,0,0,0,8.276-43.829Z" transform="translate(878.813 383.249)"/></g></svg>