<svg width="46" height="20" viewBox="0 0 46 20" fill="none" xmlns="http://www.w3.org/2000/svg">
<g clip-path="url(#clip0_67_512)">
<path d="M19.2391 19.7313L0.650757 19.738V19.6932C0.650757 19.6686 0.680404 19.5091 0.716638 19.3387C0.752872 19.1683 0.809205 18.8973 0.841821 18.7365C0.874435 18.5756 0.930201 18.3023 0.965742 18.129C1.00128 17.9558 1.06033 17.6673 1.09697 17.4879C1.1336 17.3085 1.19098 17.025 1.22449 16.8579C1.25799 16.6909 1.31393 16.4176 1.3488 16.2505C1.38366 16.0835 1.4431 15.795 1.48089 15.6094C1.51867 15.4238 1.57611 15.1403 1.60853 14.9794C1.64094 14.8186 1.69246 14.5705 1.72301 14.4283C1.75355 14.286 1.7925 14.0936 1.80954 14.0008C1.82659 13.908 1.88176 13.6347 1.93214 13.3934C1.98253 13.1521 2.03815 12.8788 2.05575 12.786C2.07335 12.6932 2.12922 12.4198 2.1799 12.1785C2.23059 11.9373 2.28627 11.6639 2.30363 11.5711C2.321 11.4783 2.37699 11.205 2.42806 10.9637C2.47912 10.7224 2.53423 10.4541 2.55053 10.3675C2.56683 10.2809 2.61147 10.0582 2.64972 9.87257C2.68798 9.68697 2.76037 9.3377 2.81059 9.09642C2.86082 8.85514 2.94672 8.435 3.00149 8.16279C3.05625 7.89057 3.1217 7.56661 3.14692 7.44288C3.17214 7.31914 3.21776 7.09642 3.24828 6.94794C3.2788 6.79946 3.33423 6.53118 3.37145 6.35176C3.40867 6.17235 3.46923 5.87876 3.50603 5.69934C3.54282 5.51993 3.59953 5.24153 3.63203 5.08067C3.66454 4.91982 3.72002 4.65154 3.75532 4.4845C3.79062 4.31745 3.85134 4.02386 3.89025 3.83208C3.92917 3.64029 3.99435 3.3467 4.03511 3.17966C4.07587 3.01262 4.1335 2.81014 4.16317 2.72971C4.19284 2.64929 4.27475 2.47494 4.3452 2.34228L4.47329 2.10107L4.58973 1.94858C4.65377 1.8647 4.76811 1.73217 4.84382 1.65405C4.91952 1.57594 5.04727 1.4584 5.1277 1.39285C5.20812 1.32731 5.32455 1.23884 5.38642 1.19627C5.44828 1.1537 5.56977 1.07917 5.65638 1.03065C5.743 0.982134 5.86448 0.918595 5.92635 0.889458C5.98821 0.860321 6.11476 0.807143 6.20756 0.771286C6.30036 0.735429 6.47753 0.675325 6.60126 0.637722C6.725 0.60012 6.95726 0.543441 7.1174 0.51177C7.27754 0.480099 7.53064 0.437798 7.67983 0.417768L7.95109 0.381349L26.5506 0.374268L45.1502 0.367188V0.411898C45.1502 0.436489 45.1204 0.59601 45.0839 0.76639C45.0474 0.936769 44.9865 1.22803 44.9485 1.41363C44.9104 1.59923 44.855 1.86751 44.8252 2.0098C44.7954 2.1521 44.7389 2.42544 44.6998 2.61723C44.6606 2.80902 44.6004 3.10261 44.5659 3.26965C44.5314 3.43669 44.4756 3.71003 44.4419 3.87707C44.4081 4.04411 44.352 4.31745 44.3171 4.4845C44.2822 4.65154 44.2281 4.91475 44.1969 5.06942C44.1657 5.22409 44.1092 5.50249 44.0713 5.6881C44.0335 5.8737 43.9727 6.16729 43.9362 6.34051C43.8997 6.51374 43.8442 6.78202 43.8127 6.93669C43.7813 7.09136 43.7248 7.36976 43.6871 7.55536C43.6494 7.74096 43.5887 8.03455 43.5522 8.20778C43.5158 8.38101 43.4614 8.64423 43.4315 8.79271C43.4015 8.94119 43.3452 9.21959 43.3063 9.41138C43.2673 9.60317 43.2106 9.88157 43.1802 10.0301C43.1497 10.1785 43.0954 10.4418 43.0594 10.615C43.0234 10.7882 42.9618 11.0869 42.9226 11.2786C42.8834 11.4704 42.8273 11.7438 42.7979 11.8861C42.7685 12.0284 42.7135 12.2966 42.6756 12.4822C42.6378 12.6678 42.5776 12.9614 42.5418 13.1347C42.5061 13.3079 42.45 13.5812 42.4172 13.7421C42.3845 13.9029 42.3275 14.1813 42.2906 14.3608C42.2538 14.5402 42.1936 14.8338 42.1568 15.0132C42.1201 15.1926 42.0651 15.4609 42.0346 15.6094C42.004 15.7578 41.9482 16.0312 41.9105 16.2168C41.8728 16.4024 41.8115 16.6949 41.7742 16.8667L41.7065 17.1792L41.6258 17.3954C41.5814 17.5143 41.5147 17.6723 41.4775 17.7466C41.4403 17.8208 41.3646 17.9518 41.3093 18.0377C41.2539 18.1235 41.1767 18.2335 41.1378 18.2821C41.0988 18.3307 40.9816 18.4562 40.8772 18.5609L40.6875 18.7514L40.5049 18.8811C40.4045 18.9525 40.2963 19.0251 40.2646 19.0424C40.2328 19.0597 40.1118 19.1215 39.9957 19.1796C39.8796 19.2378 39.7156 19.3118 39.6313 19.344C39.5469 19.3763 39.3799 19.4313 39.2601 19.4662C39.1402 19.5011 39.0118 19.5355 38.9747 19.5426C38.9376 19.5497 38.8087 19.5763 38.6884 19.6018C38.568 19.6273 38.325 19.6654 38.1484 19.6864L37.8274 19.7247L19.2391 19.7313ZM12.6257 14.9232H13.1094L13.123 14.8876C13.1306 14.868 13.1367 14.822 13.1367 14.7854C13.1367 14.7487 13.1526 14.6154 13.1721 14.4891C13.1916 14.3628 13.2373 14.0722 13.2738 13.8433C13.3102 13.6144 13.3647 13.2702 13.3949 13.0784C13.4251 12.8866 13.462 12.6411 13.4769 12.5329C13.4917 12.4246 13.5099 12.336 13.5172 12.336C13.5245 12.336 13.5558 12.3839 13.5867 12.4423L13.6429 12.5486L13.7676 12.6743L13.8923 12.8L14.0458 12.8614L14.1993 12.9229L14.3823 12.9466L14.5653 12.9703L14.7975 12.9561L15.0298 12.9418L15.2812 12.8767L15.5326 12.8117L15.6676 12.75C15.7419 12.7162 15.8735 12.6423 15.9601 12.5859L16.1176 12.4833L16.2644 12.3365C16.3452 12.2558 16.4591 12.1264 16.5175 12.0489C16.5759 11.9715 16.6238 11.9024 16.6238 11.8955C16.6238 11.8886 16.6525 11.8406 16.6876 11.7889C16.7227 11.7372 16.7945 11.5936 16.8472 11.4699C16.8999 11.3461 16.9822 11.1234 17.0302 10.9749L17.1174 10.705L17.1624 10.4711C17.1872 10.3425 17.2191 10.1299 17.2333 9.99868L17.2591 9.76009L17.2442 9.55761L17.2293 9.35514L17.1823 9.15266L17.1354 8.95019L17.0594 8.79859L16.9834 8.647L16.8366 8.49139L16.6898 8.33579L16.5162 8.24604L16.3425 8.15628L16.1513 8.1105L15.9601 8.06472L15.7689 8.05068L15.5776 8.03664L15.3646 8.06112L15.1516 8.0856L14.9777 8.12999L14.8039 8.17438L14.6528 8.24429C14.5698 8.28274 14.4489 8.34805 14.3842 8.38942C14.3195 8.43078 14.2528 8.47838 14.236 8.49518C14.2191 8.51199 14.1787 8.54312 14.1463 8.56436L14.0872 8.60298L14.1285 8.40538C14.1512 8.2967 14.1702 8.19513 14.1707 8.17966L14.1716 8.15154H13.7591H13.3467L13.2743 8.60711C13.2346 8.85767 13.1718 9.2449 13.1348 9.46762C13.0978 9.69034 13.042 10.0244 13.0108 10.21C12.9797 10.3956 12.924 10.7247 12.8872 10.9412C12.8505 11.1577 12.7896 11.5019 12.7521 11.7061C12.7146 11.9103 12.6596 12.2089 12.6299 12.3698C12.6002 12.5306 12.5444 12.8343 12.5058 13.0447C12.4672 13.255 12.4052 13.5891 12.368 13.7871C12.3308 13.9851 12.2702 14.2989 12.2334 14.4845C12.1966 14.6701 12.161 14.8447 12.1542 14.8726L12.1419 14.9232H12.6257ZM14.7081 12.3221L14.5203 12.3334L14.3975 12.3117L14.2747 12.29L14.15 12.2331L14.0253 12.1762L13.9382 12.093L13.8511 12.0098L13.8008 11.8973C13.7732 11.8355 13.7376 11.7304 13.7219 11.6638L13.6932 11.5427L13.7047 11.3488L13.7162 11.1549L13.7742 10.8512C13.806 10.6842 13.8633 10.3703 13.9014 10.1538C13.9394 9.93725 13.9971 9.61998 14.0295 9.44873L14.0884 9.13738L14.2174 9.03006C14.2883 8.97103 14.4006 8.89192 14.467 8.85425L14.5878 8.78577L14.7452 8.73702L14.9027 8.68828L15.1052 8.67639L15.3077 8.6645L15.4725 8.69964L15.6374 8.73478L15.7538 8.78836L15.8701 8.84194L15.9677 8.94003L16.0652 9.03812L16.1179 9.14199C16.1468 9.19912 16.1875 9.31094 16.2082 9.39049L16.2459 9.53511L16.2344 9.96256L16.2228 10.39L16.1651 10.6427C16.1333 10.7816 16.0728 10.9942 16.0306 11.1151L15.954 11.3349L15.8601 11.5128C15.8085 11.6107 15.7289 11.7429 15.6832 11.8067C15.6375 11.8704 15.5647 11.953 15.5214 11.9902C15.4781 12.0274 15.4056 12.0855 15.3602 12.1194L15.2778 12.1809L15.0869 12.2459L14.8959 12.3108L14.7081 12.3221ZM19.3797 12.9406L19.6271 12.9434L19.8746 12.9208C20.0107 12.9084 20.2334 12.8826 20.3695 12.8634C20.5056 12.8442 20.7408 12.8013 20.892 12.768L21.1671 12.7075L21.1808 12.6061C21.1883 12.5504 21.2192 12.3844 21.2494 12.2372L21.3044 11.9697L21.2922 11.9576L21.2801 11.9455L21.196 11.9861C21.1498 12.0084 21.0057 12.0617 20.8759 12.1045L20.6399 12.1823L20.3923 12.2302L20.1446 12.2782L19.7509 12.279L19.3572 12.2798L19.2222 12.2367C19.1479 12.2129 19.0388 12.1696 18.9795 12.1403L18.8719 12.087L18.783 12.0067L18.6941 11.9264L18.6248 11.8052L18.5555 11.684L18.512 11.532L18.4685 11.38L18.4682 11.0987L18.4679 10.8174L18.5065 10.5665L18.5451 10.3156L18.8836 10.2998L19.2222 10.2839L20.4736 10.292L21.7251 10.3L21.7628 10.1397C21.7836 10.0516 21.8154 9.86934 21.8334 9.73477L21.8663 9.49011L21.867 9.2843L21.8676 9.07849L21.832 8.92485L21.7964 8.7712L21.7375 8.66946C21.7051 8.61351 21.648 8.53241 21.6106 8.48926C21.5732 8.4461 21.5065 8.38526 21.4623 8.35405C21.4181 8.32284 21.3313 8.27039 21.2694 8.23749L21.1569 8.17769L20.9604 8.13032L20.7639 8.08295L20.5217 8.0598L20.2796 8.03665L20.0546 8.0513L19.8296 8.06595L19.5596 8.11778L19.2897 8.16962L19.1209 8.23709C19.0281 8.27419 18.8864 8.34185 18.806 8.38745C18.7256 8.43304 18.6142 8.50727 18.5585 8.55238C18.5028 8.5975 18.4064 8.68521 18.3443 8.7473C18.2821 8.80939 18.1902 8.92093 18.14 8.99517C18.0898 9.06941 18.0128 9.20102 17.9689 9.28763C17.9251 9.37425 17.8679 9.49573 17.8419 9.5576C17.8159 9.61947 17.7687 9.74601 17.7369 9.83881C17.7052 9.93162 17.6553 10.1088 17.6261 10.2325C17.5968 10.3562 17.5568 10.5599 17.537 10.6851L17.5012 10.9128L17.5015 11.2476L17.5018 11.5824L17.536 11.7286C17.5548 11.809 17.5908 11.9305 17.6159 11.9986C17.6411 12.0666 17.6876 12.1678 17.7192 12.2235C17.7509 12.2792 17.8186 12.3689 17.8696 12.4228C17.9206 12.4766 18.013 12.5584 18.0748 12.6045C18.1367 12.6505 18.2468 12.7153 18.3196 12.7484L18.4518 12.8086L18.6363 12.8532C18.7377 12.8777 18.8908 12.9068 18.9764 12.9178C19.0621 12.9288 19.2436 12.939 19.3797 12.9406H19.3797ZM19.8034 9.77133C19.1806 9.77133 18.671 9.76688 18.671 9.76143C18.671 9.75598 18.6976 9.67752 18.7301 9.58707C18.7625 9.49663 18.8196 9.36201 18.8568 9.28792L18.9245 9.1532L19.0734 9.00519L19.2222 8.85717L19.3684 8.78725C19.4488 8.74879 19.5551 8.70691 19.6046 8.69419C19.6541 8.68147 19.7959 8.66459 19.9196 8.65669L20.1446 8.64231L20.3173 8.66451L20.4901 8.68671L20.6156 8.74419L20.7412 8.80167L20.8101 8.87593C20.8479 8.91677 20.8931 8.97692 20.9104 9.00958L20.9418 9.06898L20.9626 9.20081L20.9833 9.33264L20.9596 9.55199L20.9358 9.77133H19.8034ZM26.5339 12.9407L26.7815 12.9434L27.0626 12.9101C27.2172 12.8918 27.423 12.8614 27.5199 12.8427C27.6168 12.8239 27.7737 12.7866 27.8686 12.7598C27.9635 12.733 28.0493 12.704 28.0593 12.6954C28.0694 12.6868 28.0962 12.5847 28.1189 12.4685C28.1416 12.3523 28.1703 12.1965 28.1825 12.1223C28.1948 12.048 28.2011 11.9833 28.1966 11.9785C28.1921 11.9736 28.1755 11.9799 28.1597 11.9924C28.144 12.0049 28.0336 12.0514 27.9144 12.0956L27.6978 12.1761L27.3893 12.2359L27.0808 12.2956L26.8186 12.2867L26.5563 12.2777L26.4073 12.2261L26.2583 12.1744L26.1432 12.0737L26.0281 11.973L25.9517 11.8339L25.8754 11.6948L25.839 11.5088L25.8026 11.3227L25.8028 11.0813L25.8031 10.84L25.8473 10.5475L25.8915 10.255L25.9382 10.0975C25.9639 10.0109 25.993 9.90969 26.0029 9.87257C26.0127 9.83545 26.054 9.72915 26.0946 9.63635C26.1352 9.54355 26.2075 9.40012 26.2554 9.31762L26.3425 9.16762L26.4495 9.0568L26.5564 8.94598L26.6697 8.87574L26.783 8.80549L26.9284 8.76068C27.0084 8.73605 27.1498 8.70405 27.2426 8.68959L27.4113 8.6633L27.6588 8.67571L27.9063 8.68813L28.1987 8.74667L28.4912 8.80521L28.6101 8.84958C28.6756 8.87398 28.732 8.89394 28.7354 8.89394C28.7389 8.89394 28.7546 8.81042 28.7703 8.70834C28.786 8.60626 28.8139 8.43831 28.8323 8.33513C28.8508 8.23194 28.8614 8.14307 28.856 8.13765C28.8506 8.13222 28.7627 8.11826 28.6606 8.10663C28.5586 8.09499 28.2813 8.07433 28.0445 8.06072L27.6138 8.03596L27.3101 8.05927L27.0064 8.08258L26.7814 8.12985L26.5564 8.17713L26.4115 8.23508C26.3319 8.26695 26.2151 8.32447 26.1522 8.36289C26.0892 8.40131 26.0091 8.453 25.9741 8.47775C25.9391 8.50249 25.8329 8.59904 25.7381 8.69231L25.5658 8.86187L25.4696 9.00279C25.4167 9.08029 25.3252 9.24189 25.2662 9.3619L25.1591 9.58011L25.0769 9.81633C25.0317 9.94625 24.9686 10.1588 24.9367 10.2888L24.8787 10.525L24.8576 10.7387L24.8365 10.9524L24.8368 11.2337L24.837 11.5149L24.8582 11.6785L24.8795 11.8421L24.9469 12.0103L25.0143 12.1786L25.0921 12.3003L25.1699 12.422L25.2937 12.5438L25.4174 12.6656L25.5483 12.7347L25.6793 12.8039L25.8513 12.8517C25.9459 12.878 26.0825 12.9081 26.155 12.9187C26.2274 12.9293 26.3981 12.9392 26.5343 12.9407H26.5339ZM30.2346 12.9324L30.5383 12.9237L30.7295 12.8747L30.9207 12.8258L31.0445 12.7673C31.1125 12.7351 31.2239 12.6716 31.2919 12.6262C31.36 12.5807 31.4653 12.4943 31.526 12.4341C31.5867 12.374 31.6767 12.2713 31.726 12.2061C31.7753 12.1408 31.8186 12.0903 31.8223 12.094C31.8259 12.0976 31.8146 12.2016 31.7971 12.3251C31.7796 12.4487 31.765 12.613 31.7648 12.6903L31.7644 12.831H32.1773H32.5902L32.6028 12.5104L32.6154 12.1898L32.6743 11.7736C32.7067 11.5447 32.7591 11.2055 32.7906 11.0199C32.8222 10.8343 32.8771 10.5205 32.9125 10.3225C32.948 10.1245 33.0043 9.81577 33.0375 9.63635L33.0979 9.31014L33.0999 9.02837L33.102 8.7466L33.0383 8.61637L32.9745 8.48615L32.8881 8.40321L32.8017 8.32027L32.6599 8.24839L32.5181 8.17651L32.3066 8.12949L32.0952 8.08247L31.8042 8.06032L31.5131 8.03817L31.1382 8.06136C30.932 8.07412 30.6418 8.09931 30.4933 8.11735L30.2233 8.15013L30.0393 8.15083L29.8554 8.15153L29.8286 8.28089C29.8139 8.35203 29.773 8.52107 29.7377 8.65652C29.7024 8.79197 29.6768 8.90606 29.6808 8.91006C29.6848 8.91406 29.7832 8.89173 29.8995 8.86043C30.0157 8.82914 30.2627 8.77767 30.4483 8.74607L30.7858 8.6886L31.0895 8.67608L31.3932 8.66356L31.5888 8.69786L31.7845 8.73215L31.915 8.7966L32.0456 8.86104L32.1187 8.97002L32.1918 9.079L32.1908 9.25081L32.1898 9.42262L32.151 9.61116L32.1123 9.7997L31.3028 9.80262L30.4933 9.80554L30.2284 9.87818C30.0826 9.91814 29.9213 9.97118 29.8698 9.99606C29.8183 10.0209 29.7668 10.0413 29.7553 10.0413C29.7439 10.0413 29.6572 10.0894 29.5627 10.1481L29.3909 10.2549L29.2556 10.39C29.1812 10.4642 29.0862 10.5756 29.0444 10.6375C29.0026 10.6993 28.9347 10.8286 28.8935 10.9247L28.8186 11.0994L28.7843 11.2959L28.7499 11.4924V11.6985V11.9046L28.7827 12.0762L28.8156 12.2478L28.8765 12.3598C28.91 12.4213 28.9715 12.5115 29.0131 12.5602L29.0889 12.6486L29.2234 12.7304L29.358 12.8121L29.512 12.8557C29.5967 12.8797 29.7256 12.9087 29.7985 12.9202L29.931 12.9411L30.2347 12.9324L30.2346 12.9324ZM30.5158 12.3033L30.3358 12.3127L30.2166 12.2823C30.151 12.2656 30.0516 12.2284 29.9955 12.1996L29.8937 12.1472L29.8381 12.0811C29.8075 12.0448 29.7608 11.9734 29.7343 11.9224L29.686 11.8298L29.6766 11.6136L29.6671 11.3973L29.7053 11.2661C29.7263 11.194 29.7755 11.0688 29.8146 10.9879L29.8859 10.8409L30.0222 10.7054L30.1586 10.57L30.3034 10.5003L30.4483 10.4305L30.6283 10.3878L30.8082 10.345H31.3707H31.9331L31.9687 10.3597L32.0043 10.3744L31.9743 10.551C31.9578 10.648 31.9186 10.8236 31.887 10.9412C31.8555 11.0587 31.7998 11.2315 31.7633 11.3252C31.7268 11.4188 31.6969 11.5016 31.6969 11.5092C31.6969 11.5167 31.6599 11.585 31.6147 11.6608L31.5326 11.7987L31.3976 11.9324C31.3235 12.0059 31.2546 12.066 31.2446 12.066C31.2346 12.066 31.1891 12.0914 31.1435 12.1223L31.0606 12.1786L30.8782 12.2363L30.6958 12.2939L30.5158 12.3033ZM37.8386 12.9404L38.0523 12.9431L38.2548 12.9103C38.3662 12.8922 38.5079 12.8631 38.5698 12.8456C38.6316 12.828 38.743 12.7826 38.8172 12.7446L38.9522 12.6754L39.0683 12.5732L39.1845 12.471L39.3068 12.3079C39.374 12.2182 39.4349 12.1296 39.4421 12.111L39.4552 12.0773L39.4438 12.1898C39.4376 12.2516 39.4236 12.3529 39.4127 12.4148C39.4018 12.4766 39.3862 12.5956 39.3781 12.6791L39.3632 12.831H39.8045H40.2458V12.6791V12.5272L40.313 11.9536C40.35 11.638 40.4047 11.2179 40.4346 11.0199C40.4644 10.822 40.5105 10.5385 40.537 10.39C40.5634 10.2415 40.6103 9.97325 40.6411 9.79383C40.672 9.61442 40.7276 9.30058 40.7649 9.09642C40.8021 8.89226 40.8617 8.5683 40.8973 8.37651C40.9329 8.18472 40.9882 7.88607 41.0202 7.71284C41.0522 7.53961 41.1096 7.2359 41.1477 7.03793C41.1858 6.83995 41.2414 6.56155 41.2713 6.41925C41.3012 6.27696 41.3257 6.15294 41.3256 6.14366V6.12679H40.8442H40.3627L40.3485 6.2674C40.3406 6.34473 40.3038 6.60036 40.2665 6.83545C40.2293 7.07055 40.1686 7.44513 40.1317 7.66785C40.0947 7.89057 40.0591 8.10654 40.0525 8.14779L40.0406 8.22279L40.0026 8.20663C39.9817 8.19774 39.8684 8.16632 39.7508 8.13681L39.5371 8.08314L39.2446 8.06036L38.9522 8.03759L38.7047 8.06065L38.4572 8.08371L38.2323 8.14057L38.0073 8.19744L37.7936 8.30168L37.5798 8.40592L37.4224 8.52251L37.2649 8.6391L37.1289 8.78492C37.0541 8.86512 36.946 8.99777 36.8888 9.0797L36.7846 9.22867L36.6623 9.48313C36.5951 9.62308 36.5132 9.80846 36.4804 9.89507C36.4477 9.98168 36.3899 10.1737 36.352 10.3217L36.2831 10.5909L36.2492 10.9404L36.2153 11.2899L36.2407 11.5711L36.2662 11.8523L36.2963 11.9536C36.3129 12.0092 36.3478 12.1084 36.374 12.174L36.4215 12.2932L36.5081 12.4105L36.5947 12.5277L36.6936 12.6087L36.7924 12.6897L36.9274 12.7567C37.0017 12.7936 37.1262 12.8412 37.2042 12.8626C37.2822 12.8839 37.4087 12.9096 37.4854 12.9196C37.5621 12.9296 37.721 12.9389 37.8386 12.9404H37.8386ZM38.2222 12.3021L38.0523 12.3112L37.9377 12.2905C37.8746 12.2792 37.7737 12.2488 37.7134 12.2229L37.6039 12.1759L37.5117 12.1004L37.4194 12.0248L37.3509 11.8936L37.2824 11.7623L37.2512 11.6161L37.2199 11.4699L37.2226 11.1774L37.2252 10.8849L37.2615 10.6262L37.2978 10.3675L37.3541 10.1875C37.3851 10.0885 37.4106 9.99515 37.4108 9.98C37.411 9.96484 37.4416 9.88385 37.4788 9.80002C37.5161 9.71619 37.5783 9.58686 37.6171 9.51262C37.6558 9.43838 37.7283 9.32264 37.7782 9.25543C37.828 9.18821 37.9167 9.08697 37.9754 9.03045C38.0341 8.97393 38.1274 8.8998 38.1828 8.86571L38.2835 8.80374L38.4604 8.74253L38.6373 8.68132L39.0085 8.68109H39.3797L39.5934 8.74039C39.7109 8.77299 39.8357 8.81081 39.8707 8.82443L39.9344 8.84918L39.9219 8.91093C39.9151 8.9449 39.8884 9.09417 39.8625 9.24265C39.8367 9.39113 39.7858 9.6746 39.7494 9.87257C39.713 10.0705 39.657 10.3692 39.6251 10.5362C39.5931 10.7033 39.5468 10.9159 39.5222 11.0087C39.4976 11.1015 39.4629 11.23 39.4451 11.2943C39.4272 11.3586 39.3848 11.47 39.3507 11.5418C39.3166 11.6136 39.257 11.7179 39.2183 11.7736C39.1795 11.8293 39.1139 11.9064 39.0725 11.945C39.0311 11.9836 38.9415 12.0522 38.8735 12.0974L38.7497 12.1796L38.5709 12.2364L38.3921 12.2931L38.2222 12.3021V12.3021ZM5.11189 12.831H5.65851L5.69773 12.5891C5.7193 12.4561 5.76143 12.2005 5.79135 12.0211C5.82127 11.8416 5.87695 11.5076 5.91509 11.2786C5.95323 11.0497 6.01041 10.7106 6.04215 10.525C6.07389 10.3394 6.12432 10.0515 6.15422 9.88518C6.18412 9.71889 6.21426 9.57716 6.22119 9.57022L6.2338 9.55761H7.70362H9.17343L9.18975 9.57393L9.20607 9.59024L9.18059 9.72016C9.16657 9.79161 9.1251 10.0121 9.08844 10.21C9.05178 10.408 8.99015 10.7421 8.95149 10.9524C8.91282 11.1628 8.85691 11.4614 8.82724 11.6161C8.79757 11.7708 8.73754 12.0947 8.69383 12.336C8.65011 12.5773 8.61444 12.7874 8.61455 12.8028L8.61478 12.831H9.16365H9.71252L9.73681 12.6903C9.75017 12.613 9.77166 12.4738 9.78457 12.381C9.79748 12.2882 9.8286 12.0908 9.85373 11.9423C9.87886 11.7938 9.92907 11.5002 9.9653 11.2899C10.0015 11.0795 10.0622 10.7202 10.1001 10.4912C10.138 10.2623 10.1942 9.92825 10.225 9.74884C10.2558 9.56942 10.3107 9.26571 10.347 9.07392C10.3833 8.88213 10.4438 8.55817 10.4814 8.35401C10.5189 8.14985 10.5753 7.84108 10.6065 7.66785C10.6378 7.49462 10.6947 7.18078 10.7331 6.97044C10.7715 6.76009 10.8199 6.51459 10.8408 6.42488L10.8787 6.26177H10.323H9.76725L9.75213 6.36864C9.74382 6.42741 9.71697 6.59192 9.69247 6.73421C9.66797 6.87651 9.6234 7.1296 9.59343 7.29664C9.56346 7.46369 9.50869 7.78258 9.47172 8.00531C9.43475 8.22803 9.38764 8.52286 9.36702 8.66048L9.32954 8.91072L8.51374 8.92723L7.69794 8.94374L7.01463 8.92752C6.6388 8.9186 6.32923 8.90954 6.32669 8.90737C6.32414 8.90521 6.33694 8.81778 6.35513 8.71309C6.37332 8.6084 6.40773 8.42657 6.43161 8.30902C6.45548 8.19147 6.50073 7.95862 6.53217 7.79158C6.5636 7.62454 6.59921 7.417 6.6113 7.33039C6.62338 7.24378 6.64871 7.09951 6.66759 7.00981C6.68646 6.9201 6.72227 6.73114 6.74718 6.58989C6.77208 6.44865 6.79861 6.31704 6.80613 6.29743L6.81982 6.26177H6.26857H5.71731L5.68201 6.45862C5.66259 6.56689 5.63669 6.72128 5.62447 6.80171C5.61224 6.88213 5.57118 7.14029 5.53322 7.37538C5.49527 7.61048 5.43923 7.95975 5.40871 8.15154C5.37818 8.34333 5.32258 8.69259 5.28516 8.92769C5.24774 9.16279 5.186 9.52724 5.14796 9.73759C5.10992 9.94794 5.05484 10.2466 5.02556 10.4013C4.99629 10.5559 4.9405 10.8495 4.90159 11.0537C4.86268 11.2578 4.80592 11.5464 4.77545 11.6948C4.74498 11.8433 4.7113 12.0154 4.70059 12.0773C4.6899 12.1392 4.65507 12.3176 4.62321 12.4738C4.59135 12.63 4.56529 12.7743 4.56529 12.7944V12.831H5.11191H5.11189ZM11.1632 12.831H11.6471L11.6607 12.7954C11.6682 12.7758 11.6744 12.7245 11.6744 12.6813C11.6744 12.6381 11.7048 12.4137 11.742 12.1826C11.7792 11.9514 11.8406 11.575 11.8786 11.3461C11.9165 11.1172 11.9725 10.7831 12.003 10.6037C12.0335 10.4243 12.0878 10.1257 12.1236 9.94006C12.1594 9.75446 12.2144 9.46594 12.2458 9.29889C12.2772 9.13185 12.3389 8.81405 12.383 8.59267C12.427 8.37129 12.4686 8.18127 12.4753 8.17041L12.4875 8.15065L11.9981 8.15672L11.5088 8.16279L11.468 8.45525C11.4456 8.6161 11.3966 8.935 11.3591 9.16391C11.3216 9.39282 11.2649 9.74209 11.2331 9.94006C11.2013 10.138 11.1458 10.4569 11.1098 10.6487C11.0738 10.8405 11.0187 11.1341 10.9873 11.3011C10.9558 11.4682 10.8995 11.7618 10.862 11.9536C10.8245 12.1454 10.7742 12.3984 10.7502 12.516C10.7262 12.6335 10.7004 12.7525 10.6929 12.7803L10.6793 12.831H11.1632ZM22.4809 12.831H22.9612L22.9757 12.6277C22.9836 12.5159 23.0108 12.2907 23.0361 12.1272C23.0613 11.9636 23.1131 11.6375 23.1511 11.4024C23.1891 11.1673 23.2597 10.776 23.308 10.5328C23.3563 10.2896 23.4109 10.0479 23.4294 9.99566C23.4478 9.94341 23.4629 9.88679 23.4629 9.86984C23.4629 9.85289 23.499 9.76051 23.5432 9.66457C23.5873 9.56862 23.6695 9.4217 23.7259 9.33808L23.8285 9.18604L23.9657 9.05896L24.103 8.93188L24.2723 8.85105L24.4415 8.77021L24.7003 8.77156L24.959 8.77291L25.0862 8.81092C25.1561 8.83183 25.2194 8.84893 25.2268 8.84893C25.2341 8.84893 25.2402 8.82502 25.2402 8.79578C25.2402 8.76655 25.2655 8.61837 25.2964 8.46648C25.3274 8.3146 25.3527 8.18392 25.3527 8.17609C25.3527 8.16826 25.2793 8.13953 25.1896 8.11226C25.0999 8.08498 24.9758 8.05641 24.914 8.04877L24.8015 8.03487L24.6553 8.06074C24.5748 8.07496 24.4552 8.10637 24.3895 8.13053C24.3238 8.15468 24.2152 8.20947 24.1483 8.25228C24.0814 8.29509 23.9773 8.37852 23.917 8.43767C23.8566 8.49682 23.7552 8.61609 23.6915 8.7027C23.6278 8.78932 23.5613 8.88043 23.5435 8.90518L23.5113 8.95017L23.5309 8.86018C23.5416 8.81069 23.5716 8.64871 23.5975 8.50023C23.6233 8.35175 23.6499 8.21255 23.6565 8.19089L23.6684 8.15152H23.2395H22.8105V8.20575C22.8105 8.23558 22.7852 8.41527 22.7542 8.60508C22.7233 8.79488 22.6723 9.11215 22.6408 9.31013C22.6094 9.5081 22.5536 9.85231 22.5169 10.075C22.4802 10.2978 22.4244 10.6167 22.3929 10.7837C22.3615 10.9507 22.3057 11.2443 22.2689 11.4361C22.2321 11.6279 22.171 11.9417 22.1331 12.1335C22.0953 12.3253 22.0499 12.5518 22.0324 12.6368C22.0149 12.7219 22.0006 12.8003 22.0006 12.8112V12.8309H22.4809V12.831ZM33.8829 12.831H34.374V12.6807V12.5304L34.4306 12.1576C34.4618 11.9526 34.5131 11.6279 34.5448 11.4361C34.5764 11.2443 34.6158 11.0014 34.6324 10.8962C34.6489 10.791 34.6928 10.5632 34.7299 10.39C34.767 10.2168 34.8133 10.0295 34.8328 9.97381C34.8523 9.91813 34.8685 9.85971 34.8687 9.84399C34.8689 9.82827 34.9107 9.72719 34.9617 9.61936L35.0544 9.4233L35.1767 9.2608L35.299 9.0983L35.4328 8.99769C35.5065 8.94235 35.6248 8.86891 35.6959 8.83449L35.8251 8.77191L36.1063 8.77384L36.3875 8.77578L36.4982 8.81133L36.6089 8.84688L36.6276 8.83534L36.6463 8.82381L36.6472 8.75202C36.6477 8.71254 36.6718 8.56563 36.7007 8.42555L36.7533 8.17086L36.6942 8.14771C36.6616 8.13498 36.5844 8.10862 36.5225 8.08914L36.41 8.05371L36.2076 8.05423L36.0051 8.05475L35.8401 8.1128L35.6751 8.17086L35.5512 8.24556L35.4273 8.32027L35.2662 8.489L35.1051 8.65773L35.0186 8.78862C34.971 8.86061 34.9291 8.91629 34.9255 8.91236C34.9218 8.90842 34.9477 8.75841 34.9829 8.57899C35.0182 8.39958 35.0475 8.23 35.048 8.20216L35.049 8.15155H34.6328H34.2166V8.16588C34.2166 8.17376 34.1958 8.31803 34.1705 8.48647C34.1451 8.6549 34.0942 8.98001 34.0573 9.20891C34.0204 9.43782 33.9599 9.80734 33.9229 10.0301C33.8858 10.2528 33.8299 10.5717 33.7987 10.7387C33.7674 10.9058 33.7119 11.1994 33.6754 11.3911C33.6388 11.5829 33.5787 11.8917 33.5418 12.0773C33.505 12.2629 33.4561 12.5084 33.4333 12.6229L33.3918 12.831H33.8829L33.8829 12.831ZM12.1147 7.34114L12.2513 7.34164L12.3599 7.30464L12.4684 7.26765L12.5645 7.17017L12.6606 7.07269L12.7113 6.94282L12.7619 6.81295L12.7637 6.62173L12.7655 6.4305L12.7205 6.35583L12.6755 6.28116L12.5972 6.23266L12.5188 6.18416H12.3497L12.1806 6.18416L12.0654 6.23571L11.9503 6.28726L11.8834 6.35888L11.8166 6.4305L11.7641 6.55424L11.7116 6.67797L11.7017 6.87071L11.6918 7.06345L11.7406 7.15924L11.7895 7.25503L11.8838 7.29784L11.9781 7.34065L12.1147 7.34115V7.34114Z" fill="#B3131B"/>
</g>
<defs>
<clipPath id="clip0_67_512">
<rect width="44.9944" height="20" fill="white" transform="translate(0.414551)"/>
</clipPath>
</defs>
</svg>
