<svg width="21" height="20" viewBox="0 0 21 20" fill="none" xmlns="http://www.w3.org/2000/svg">
<g clip-path="url(#clip0_67_492)">
<path d="M0.364807 0.000244141H20.3648V10.7968L19.3749 12.3436L20.3648 13.7203V20.0002H0.364807V9.82236L0.983523 9.11084L0.364807 8.43025V0.000244141Z" fill="#016FD0"/>
<path d="M4.24725 13.9366V10.7966H7.57191L7.92861 11.2616L8.29711 10.7966H20.3648V13.7201C20.3648 13.7201 20.0492 13.9335 19.6842 13.9366H13.0021L12.5999 13.4416V13.9366H11.2821V13.0917C11.2821 13.0917 11.102 13.2096 10.7128 13.2096H10.2643V13.9366H8.26891L7.91272 13.4616L7.55106 13.9366H4.24725Z" fill="white"/>
<path d="M0.364807 8.43012L1.11453 6.68225H2.4111L2.83658 7.66134V6.68225H4.44833L4.70162 7.3899L4.94717 6.68225H12.1823V7.03801C12.1823 7.03801 12.5626 6.68225 13.1877 6.68225L15.5352 6.69045L15.9534 7.65673V6.68225H17.3022L17.6734 7.2373V6.68225H19.0346V9.82223H17.6734L17.3176 9.26539V9.82223H15.3359L15.1367 9.32726H14.6039L14.4079 9.82223H13.064C12.5261 9.82223 12.1823 9.47374 12.1823 9.47374V9.82223H10.156L9.75382 9.32726V9.82223H2.21902L2.01987 9.32726H1.48883L1.29109 9.82223H0.364807V8.43012Z" fill="white"/>
<path d="M1.3799 7.06934L0.368683 9.42046H1.02704L1.21362 8.94965H2.2983L2.48392 9.42046H3.15677L2.14652 7.06934H1.3799ZM1.75403 7.61651L2.08465 8.43921H1.42243L1.75403 7.61651Z" fill="#016FD0"/>
<path d="M3.22638 9.41997V7.06885L4.16193 7.07232L4.70609 8.58818L5.23721 7.06885H6.16528V9.41997H5.5775V7.68756L4.95444 9.41997H4.43896L3.81416 7.68756V9.41997H3.22638Z" fill="#016FD0"/>
<path d="M6.56744 9.41997V7.06885H8.48546V7.59476H7.16141V7.99692H8.45453V8.4919H7.16141V8.90953H8.48546V9.41997H6.56744Z" fill="#016FD0"/>
<path d="M8.82574 7.06934V9.42046H9.41352V8.58519H9.66101L10.3658 9.42046H11.0841L10.3107 8.55426C10.6281 8.52747 10.9555 8.25505 10.9555 7.8321C10.9555 7.33734 10.5672 7.06934 10.1337 7.06934H8.82574ZM9.41352 7.59524H10.0854C10.2466 7.59524 10.3638 7.72132 10.3638 7.84273C10.3638 7.99893 10.2119 8.09022 10.0941 8.09022H9.41352V7.59524Z" fill="#016FD0"/>
<path d="M11.7956 9.41997H11.1954V7.06885H11.7956V9.41997Z" fill="#016FD0"/>
<path d="M13.2186 9.41997H13.0891C12.4623 9.41997 12.0818 8.92616 12.0818 8.25408C12.0818 7.56539 12.4581 7.06885 13.2496 7.06885H13.8992V7.62569H13.2258C12.9045 7.62569 12.6773 7.87645 12.6773 8.25988C12.6773 8.7152 12.9371 8.90644 13.3115 8.90644H13.4661L13.2186 9.41997Z" fill="#016FD0"/>
<path d="M14.4976 7.06934L13.4864 9.42046H14.1448L14.3314 8.94965H15.416L15.6017 9.42046H16.2745L15.2643 7.06934H14.4976ZM14.8718 7.61651L15.2024 8.43921H14.5402L14.8718 7.61651Z" fill="#016FD0"/>
<path d="M16.3431 9.41997V7.06885H17.0904L18.0446 8.54603V7.06885H18.6324V9.41997H17.9093L16.9309 7.90411V9.41997H16.3431Z" fill="#016FD0"/>
<path d="M4.64941 13.5345V11.1833H6.56743V11.7093H5.24338V12.1114H6.5365V12.6064H5.24338V13.024H6.56743V13.5345H4.64941Z" fill="#016FD0"/>
<path d="M14.0477 13.5345V11.1833H15.9657V11.7093H14.6417V12.1114H15.9286V12.6064H14.6417V13.024H15.9657V13.5345H14.0477Z" fill="#016FD0"/>
<path d="M6.64186 13.5345L7.57574 12.3734L6.61963 11.1833H7.36015L7.92957 11.919L8.50091 11.1833H9.21244L8.26889 12.3589L9.20449 13.5345H8.46408L7.9112 12.8104L7.37176 13.5345H6.64186Z" fill="#016FD0"/>
<path d="M9.27432 11.1837V13.5348H9.87757V12.7924H10.4963C11.0198 12.7924 11.4166 12.5146 11.4166 11.9745C11.4166 11.5271 11.1054 11.1837 10.5727 11.1837H9.27432ZM9.87757 11.7154H10.5292C10.6983 11.7154 10.8192 11.8191 10.8192 11.9861C10.8192 12.143 10.6989 12.2568 10.5272 12.2568H9.87757V11.7154Z" fill="#016FD0"/>
<path d="M11.6718 11.1833V13.5345H12.2596V12.6992H12.5071L13.2119 13.5345H13.9302L13.1568 12.6683C13.4742 12.6415 13.8016 12.3691 13.8016 11.9461C13.8016 11.4514 13.4133 11.1833 12.9798 11.1833H11.6718ZM12.2596 11.7093H12.9315C13.0927 11.7093 13.2099 11.8353 13.2099 11.9567C13.2099 12.1129 13.058 12.2042 12.9402 12.2042H12.2596V11.7093Z" fill="#016FD0"/>
<path d="M16.238 13.5345V13.024H17.4143C17.5884 13.024 17.6637 12.93 17.6637 12.8268C17.6637 12.728 17.5886 12.6281 17.4143 12.6281H16.8827C16.4207 12.6281 16.1633 12.3465 16.1633 11.9239C16.1633 11.5469 16.399 11.1833 17.0856 11.1833H18.2302L17.9827 11.7124H16.9928C16.8036 11.7124 16.7453 11.8117 16.7453 11.9065C16.7453 12.0039 16.8173 12.1114 16.9619 12.1114H17.5187C18.0338 12.1114 18.2573 12.4036 18.2573 12.7862C18.2573 13.1976 18.0082 13.5345 17.4907 13.5345H16.238Z" fill="#016FD0"/>
<path d="M18.3953 13.5345V13.024H19.5716C19.7456 13.024 19.821 12.93 19.821 12.8268C19.821 12.728 19.7459 12.6281 19.5716 12.6281H19.04C18.578 12.6281 18.3206 12.3465 18.3206 11.9239C18.3206 11.5469 18.5563 11.1833 19.2429 11.1833H20.3875L20.14 11.7124H19.1501C18.9609 11.7124 18.9026 11.8117 18.9026 11.9065C18.9026 12.0039 18.9746 12.1114 19.1191 12.1114H19.676C20.1911 12.1114 20.4146 12.4036 20.4146 12.7862C20.4146 13.1976 20.1655 13.5345 19.648 13.5345H18.3953Z" fill="#016FD0"/>
</g>
<defs>
<clipPath id="clip0_67_492">
<rect width="20.0498" height="20" fill="white" transform="translate(0.364807)"/>
</clipPath>
</defs>
</svg>
