<svg width="56" height="24" viewBox="0 0 56 24" fill="none" xmlns="http://www.w3.org/2000/svg">
<g clip-path="url(#clip0_63_1187)">
<path d="M9.44618 5.88394C10.0572 5.66955 10.709 5.5552 11.3852 5.5552C14.3452 5.5552 16.8165 7.76776 17.3814 10.7093L21.5771 9.8088C20.6157 4.81197 16.4173 1.05005 11.3852 1.05005C10.231 1.05005 9.12573 1.24729 8.08835 1.61319L9.44618 5.88394Z" fill="#FFCB05"/>
<path d="M4.49552 20.1941L7.3334 16.8181C6.0679 15.6375 5.26949 13.9138 5.26949 11.9928C5.26949 10.0747 6.0679 8.35092 7.3334 7.17318L4.49552 3.79431C2.34471 5.80105 0.986877 8.73111 0.986877 11.9928C0.986877 15.2573 2.34471 18.1874 4.49552 20.1941Z" fill="#00A4E0"/>
<path d="M17.3814 13.2849C16.8138 16.2236 14.3452 18.4333 11.3879 18.4333C10.709 18.4333 10.0545 18.3189 9.44618 18.1017L8.08835 22.3781C9.12573 22.7412 10.2337 22.9384 11.3879 22.9384C16.4146 22.9384 20.6103 19.1822 21.5771 14.1911L17.3814 13.2849Z" fill="#EF4123"/>
<path d="M25.246 16.9582C25.1075 16.7238 24.9228 16.3493 24.8087 16.072C24.1434 14.4483 24.1135 12.7674 24.6729 11.1552C25.2894 9.38573 26.468 8.03361 27.9915 7.34183C29.906 6.47567 32.0216 6.64433 33.8573 7.79063C35.0224 8.49384 35.8479 9.58011 36.4753 11.118C36.554 11.3153 36.6246 11.524 36.6952 11.7041L25.246 16.9582ZM29.0696 9.95173C27.7091 10.5663 27.0084 11.9099 27.1551 13.4821L32.9123 10.8722C31.9211 9.64872 30.6338 9.2428 29.0696 9.95173ZM33.6292 15.6289C33.6265 15.6289 33.6265 15.6318 33.6265 15.6318L33.507 15.546C33.1621 16.132 32.6271 16.6094 31.9509 16.9181C30.6637 17.507 29.4715 17.3555 28.6134 16.5637L28.5346 16.6895C28.5346 16.6895 28.5346 16.6866 28.5319 16.6866L27.0709 18.9878C27.4348 19.2536 27.8231 19.4766 28.2305 19.6567C29.8436 20.3628 31.4947 20.3284 33.1214 19.5852C34.2973 19.0478 35.2206 18.2302 35.8506 17.1926L33.6292 15.6289Z" fill="black"/>
<path d="M40.6954 3.95728V16.7466L42.5855 17.5528L41.5128 20.1884L39.4272 19.2737C38.9601 19.0593 38.6396 18.7334 38.4007 18.3646C38.1698 17.9901 37.9987 17.4727 37.9987 16.781V3.95728H40.6954Z" fill="black"/>
<path d="M45.589 13.4908C45.589 12.4016 46.048 11.424 46.7703 10.7608L44.8314 8.48535C43.517 9.70883 42.6887 11.4955 42.6887 13.485C42.686 15.4775 43.5143 17.267 44.8259 18.4904L46.7622 16.215C46.0425 15.5489 45.589 14.577 45.589 13.4908Z" fill="black"/>
<path d="M49.0325 17.1182C48.6523 17.1182 48.283 17.0496 47.9408 16.9296L47.0148 19.8253C47.6475 20.0483 48.3237 20.1712 49.0298 20.1712C52.0985 20.1741 54.6594 17.8815 55.2541 14.8371L52.4081 14.2253C52.0849 15.8805 50.6972 17.1211 49.0325 17.1182Z" fill="black"/>
<path d="M49.0407 6.81018C48.3373 6.81018 47.6611 6.93024 47.0284 7.15035L47.9462 10.049C48.2911 9.92891 48.6578 9.86316 49.0379 9.86316C50.7054 9.86602 52.0958 11.1124 52.4108 12.7704L55.2568 12.1643C54.673 9.11421 52.1121 6.81304 49.0407 6.81018Z" fill="black"/>
</g>
<defs>
<clipPath id="clip0_63_1187">
<rect width="55" height="23.1579" fill="white" transform="translate(0.364807 0.421021)"/>
</clipPath>
</defs>
</svg>
