<svg width="43" height="30" viewBox="0 0 43 30" fill="none" xmlns="http://www.w3.org/2000/svg">
<path d="M26.122 7.13794H17.372V22.8619H26.122V7.13794Z" fill="#FF5F00"/>
<path d="M17.9276 15C17.9262 13.4857 18.2694 11.9909 18.9311 10.6287C19.5928 9.26664 20.5558 8.07294 21.747 7.138C20.2718 5.97846 18.5001 5.25735 16.6345 5.05711C14.7688 4.85687 12.8845 5.18556 11.1968 6.00563C9.50912 6.8257 8.08621 8.10406 7.09072 9.69458C6.09523 11.2851 5.56732 13.1236 5.56732 15C5.56732 16.8764 6.09523 18.7149 7.09072 20.3054C8.08621 21.8959 9.50912 23.1743 11.1968 23.9943C12.8845 24.8144 14.7688 25.1431 16.6345 24.9429C18.5001 24.7426 20.2718 24.0215 21.747 22.862C20.5558 21.927 19.5928 20.7333 18.9311 19.3712C18.2694 18.0091 17.9262 16.5143 17.9276 15Z" fill="#EB001B"/>
<path d="M37.9262 15C37.9263 16.8763 37.3984 18.7148 36.403 20.3054C35.4075 21.8959 33.9847 23.1742 32.297 23.9943C30.6094 24.8144 28.7251 25.1431 26.8594 24.9429C24.9938 24.7426 23.2222 24.0215 21.747 22.862C22.9372 21.9261 23.8994 20.7322 24.561 19.3703C25.2226 18.0084 25.5664 16.5141 25.5664 15C25.5664 13.4859 25.2226 11.9916 24.561 10.6297C23.8994 9.26778 22.9372 8.07388 21.747 7.138C23.2222 5.97845 24.9938 5.25735 26.8594 5.05711C28.7251 4.85687 30.6094 5.18558 32.297 6.00565C33.9847 6.82573 35.4075 8.10409 36.403 9.69461C37.3984 11.2851 37.9263 13.1236 37.9262 15Z" fill="#F79E1B"/>
<path d="M36.9721 21.1966V20.8747H37.1019V20.8091H36.7714V20.8747H36.9012V21.1966H36.9721ZM37.6139 21.1966V20.8085H37.5126L37.3961 21.0754L37.2795 20.8085H37.1781V21.1966H37.2496V20.9038L37.3589 21.1563H37.4331L37.5424 20.9032V21.1966H37.6139Z" fill="#F79E1B"/>
</svg>
