<svg width="53" height="38" viewBox="0 0 53 38" fill="none" xmlns="http://www.w3.org/2000/svg">
<path d="M5.90606 5.60333C5.77199 5.43832 5.70496 5.29137 5.70496 5.16246C5.70496 5.02839 5.81582 4.85307 6.03755 4.63651C6.16646 4.51275 6.3031 4.45088 6.44748 4.45088C6.59186 4.45088 6.79296 4.57979 7.05078 4.8376C7.12296 4.92526 7.22609 5.01034 7.36016 5.09285C7.49422 5.17019 7.61798 5.20886 7.73142 5.20886C8.21096 5.20886 8.45073 5.01292 8.45073 4.62104C8.45073 4.50244 8.3837 4.40447 8.24963 4.32712C8.12072 4.24462 7.9583 4.18532 7.76236 4.14923C7.56641 4.11313 7.355 4.05641 7.12812 3.97907C6.90124 3.89657 6.68983 3.80117 6.49389 3.69289C6.29794 3.5846 6.13294 3.41444 5.99887 3.18241C5.86996 2.94521 5.80551 2.66161 5.80551 2.3316C5.80551 1.87784 5.97309 1.48338 6.30826 1.14822C6.64858 0.807894 7.11007 0.637734 7.69274 0.637734C8.00213 0.637734 8.28315 0.678985 8.53581 0.761487C8.79363 0.838833 8.97153 0.918756 9.0695 1.00126L9.26286 1.14822C9.42271 1.29775 9.50263 1.42408 9.50263 1.52721C9.50263 1.63034 9.44076 1.77214 9.317 1.95261C9.14169 2.21043 8.96121 2.33934 8.77558 2.33934C8.6673 2.33934 8.53323 2.28778 8.37339 2.18465C8.35792 2.17433 8.32698 2.14855 8.28057 2.1073C8.23932 2.06605 8.20065 2.03253 8.16455 2.00675C8.05627 1.93972 7.91705 1.9062 7.74689 1.9062C7.58188 1.9062 7.44266 1.94745 7.32922 2.02996C7.22094 2.1073 7.16679 2.21816 7.16679 2.36254C7.16679 2.50177 7.23125 2.61521 7.36016 2.70286C7.49422 2.79052 7.65923 2.84982 7.85517 2.88076C8.05111 2.9117 8.2651 2.96068 8.49714 3.02772C8.72918 3.08959 8.94317 3.16694 9.13911 3.25975C9.33505 3.35257 9.49748 3.51499 9.62639 3.74703C9.76045 3.97391 9.82749 4.25493 9.82749 4.5901C9.82749 4.92526 9.76045 5.22176 9.62639 5.47957C9.49232 5.73224 9.317 5.92818 9.10044 6.0674C8.68277 6.34069 8.23674 6.47733 7.76236 6.47733C7.52001 6.47733 7.29055 6.44897 7.07398 6.39225C6.85741 6.33038 6.68209 6.25561 6.54803 6.16795C6.27474 6.00295 6.08395 5.8431 5.97567 5.68841L5.90606 5.60333Z" fill="white"/>
<path d="M12.7589 0.660937C13.5221 0.660937 14.1847 0.936804 14.7467 1.48854C15.3088 2.04027 15.5898 2.72607 15.5898 3.54593C15.5898 4.36064 15.3217 5.05675 14.7854 5.63427C14.2491 6.20662 13.5891 6.4928 12.8054 6.4928C12.0216 6.4928 11.3538 6.2092 10.8021 5.642C10.2555 5.0748 9.98224 4.39931 9.98224 3.61554C9.98224 3.18756 10.0596 2.78794 10.2143 2.41668C10.369 2.04027 10.5752 1.72573 10.833 1.47307C11.0909 1.2204 11.3874 1.02188 11.7225 0.877505C12.0577 0.733127 12.4032 0.660937 12.7589 0.660937ZM11.3513 3.57687C11.3513 4.03579 11.4982 4.40963 11.7921 4.69838C12.0912 4.98198 12.4238 5.12378 12.7899 5.12378C13.156 5.12378 13.486 4.98456 13.7799 4.70612C14.0738 4.42767 14.2208 4.05384 14.2208 3.5846C14.2208 3.11537 14.0712 2.73896 13.7722 2.45536C13.4783 2.17176 13.1483 2.02996 12.7822 2.02996C12.416 2.02996 12.086 2.17434 11.7921 2.46309C11.4982 2.74669 11.3513 3.11795 11.3513 3.57687Z" fill="white"/>
<path d="M21.8888 0.947116C21.93 1.02446 21.9532 1.09407 21.9584 1.15595C21.9687 1.21783 21.9738 1.30806 21.9738 1.42666V5.71935C21.9738 6.07514 21.8759 6.28397 21.6799 6.34585C21.582 6.37678 21.4582 6.39225 21.3087 6.39225C21.1591 6.39225 21.0405 6.37936 20.9529 6.35358C20.8652 6.3278 20.7982 6.29686 20.7518 6.26077C20.7054 6.22467 20.6693 6.17311 20.6435 6.10607C20.6177 6.01842 20.6048 5.88435 20.6048 5.70388V3.1128C20.4759 3.27264 20.2877 3.52788 20.0402 3.87852C19.7927 4.224 19.6354 4.44056 19.5684 4.52822C19.5014 4.61588 19.455 4.67776 19.4292 4.71385C19.4034 4.74479 19.3389 4.7912 19.2358 4.85307C19.1378 4.90979 19.0295 4.93815 18.911 4.93815C18.7975 4.93815 18.6918 4.91237 18.5938 4.86081C18.501 4.80409 18.434 4.74995 18.3927 4.69838L18.3309 4.6133C18.2277 4.48439 18.0241 4.2111 17.7198 3.79344C17.4156 3.37061 17.2506 3.14373 17.2248 3.1128V5.71935C17.2248 5.83794 17.2197 5.92818 17.2093 5.99006C17.2042 6.04678 17.181 6.11123 17.1397 6.18342C17.0624 6.32264 16.8613 6.39225 16.5364 6.39225C16.2219 6.39225 16.026 6.32264 15.9486 6.18342C15.9074 6.11123 15.8816 6.0442 15.8713 5.98232C15.8661 5.92045 15.8635 5.82763 15.8635 5.70388V1.41119C15.8635 1.29259 15.8661 1.20494 15.8713 1.14822C15.8816 1.08634 15.9074 1.01673 15.9486 0.939382C16.026 0.805316 16.2271 0.738283 16.5519 0.738283C16.6911 0.738283 16.8097 0.75633 16.9077 0.792425C17.0108 0.823363 17.0779 0.85688 17.1088 0.892975L17.1552 0.939382L18.911 3.24428C19.7875 2.0841 20.3728 1.31838 20.6667 0.947116C20.7544 0.807894 20.9606 0.738283 21.2855 0.738283C21.6155 0.738283 21.8166 0.807894 21.8888 0.947116Z" fill="white"/>
<path d="M25.0222 0.660937C25.7853 0.660937 26.4479 0.936804 27.01 1.48854C27.572 2.04027 27.853 2.72607 27.853 3.54593C27.853 4.36064 27.5849 5.05675 27.0486 5.63427C26.5124 6.20662 25.8523 6.4928 25.0686 6.4928C24.2848 6.4928 23.6171 6.2092 23.0653 5.642C22.5187 5.0748 22.2455 4.39931 22.2455 3.61554C22.2455 3.18756 22.3228 2.78794 22.4775 2.41668C22.6322 2.04027 22.8384 1.72573 23.0963 1.47307C23.3541 1.2204 23.6506 1.02188 23.9857 0.877505C24.3209 0.733127 24.6664 0.660937 25.0222 0.660937ZM23.6145 3.57687C23.6145 4.03579 23.7614 4.40963 24.0553 4.69838C24.3544 4.98198 24.687 5.12378 25.0531 5.12378C25.4192 5.12378 25.7492 4.98456 26.0431 4.70612C26.337 4.42767 26.484 4.05384 26.484 3.5846C26.484 3.11537 26.3345 2.73896 26.0354 2.45536C25.7415 2.17176 25.4115 2.02996 25.0454 2.02996C24.6793 2.02996 24.3493 2.17434 24.0553 2.46309C23.7614 2.74669 23.6145 3.11795 23.6145 3.57687Z" fill="white"/>
<path d="M28.2118 5.60333C28.0778 5.43832 28.0107 5.29137 28.0107 5.16246C28.0107 5.02839 28.1216 4.85307 28.3433 4.63651C28.4722 4.51275 28.6089 4.45088 28.7533 4.45088C28.8976 4.45088 29.0987 4.57979 29.3565 4.8376C29.4287 4.92526 29.5319 5.01034 29.6659 5.09285C29.8 5.17019 29.9237 5.20886 30.0372 5.20886C30.5167 5.20886 30.7565 5.01292 30.7565 4.62104C30.7565 4.50244 30.6895 4.40447 30.5554 4.32712C30.4265 4.24462 30.2641 4.18532 30.0681 4.14923C29.8722 4.11313 29.6608 4.05641 29.4339 3.97907C29.207 3.89657 28.9956 3.80117 28.7997 3.69289C28.6037 3.5846 28.4387 3.41444 28.3046 3.18241C28.1757 2.94521 28.1113 2.66161 28.1113 2.3316C28.1113 1.87784 28.2789 1.48338 28.614 1.14822C28.9544 0.807894 29.4158 0.637734 29.9985 0.637734C30.3079 0.637734 30.5889 0.678985 30.8416 0.761487C31.0994 0.838833 31.2773 0.918756 31.3753 1.00126L31.5686 1.14822C31.7285 1.29775 31.8084 1.42408 31.8084 1.52721C31.8084 1.63034 31.7465 1.77214 31.6228 1.95261C31.4475 2.21043 31.267 2.33934 31.0814 2.33934C30.9731 2.33934 30.839 2.28778 30.6792 2.18465C30.6637 2.17433 30.6328 2.14855 30.5863 2.1073C30.5451 2.06605 30.5064 2.03253 30.4703 2.00675C30.362 1.93972 30.2228 1.9062 30.0527 1.9062C29.8877 1.9062 29.7484 1.94745 29.635 2.02996C29.5267 2.1073 29.4726 2.21816 29.4726 2.36254C29.4726 2.50177 29.537 2.61521 29.6659 2.70286C29.8 2.79052 29.965 2.84982 30.1609 2.88076C30.3569 2.9117 30.5709 2.96068 30.8029 3.02772C31.0349 3.08959 31.2489 3.16694 31.4449 3.25975C31.6408 3.35257 31.8033 3.51499 31.9322 3.74703C32.0662 3.97391 32.1333 4.25493 32.1333 4.5901C32.1333 4.92526 32.0662 5.22176 31.9322 5.47957C31.7981 5.73224 31.6228 5.92818 31.4062 6.0674C30.9885 6.34069 30.5425 6.47733 30.0681 6.47733C29.8258 6.47733 29.5963 6.44897 29.3798 6.39225C29.1632 6.33038 28.9879 6.25561 28.8538 6.16795C28.5805 6.00295 28.3897 5.8431 28.2814 5.68841L28.2118 5.60333Z" fill="white"/>
<path d="M36.789 0.660937C37.5521 0.660937 38.2147 0.936804 38.7768 1.48854C39.3388 2.04027 39.6198 2.72607 39.6198 3.54593C39.6198 4.36064 39.3517 5.05675 38.8154 5.63427C38.2792 6.20662 37.6192 6.4928 36.8354 6.4928C36.0516 6.4928 35.3839 6.2092 34.8321 5.642C34.2856 5.0748 34.0123 4.39931 34.0123 3.61554C34.0123 3.18756 34.0896 2.78794 34.2443 2.41668C34.399 2.04027 34.6053 1.72573 34.8631 1.47307C35.1209 1.2204 35.4174 1.02188 35.7526 0.877505C36.0877 0.733127 36.4332 0.660937 36.789 0.660937ZM35.3813 3.57687C35.3813 4.03579 35.5283 4.40963 35.8222 4.69838C36.1212 4.98198 36.4538 5.12378 36.8199 5.12378C37.186 5.12378 37.516 4.98456 37.8099 4.70612C38.1039 4.42767 38.2508 4.05384 38.2508 3.5846C38.2508 3.11537 38.1013 2.73896 37.8022 2.45536C37.5083 2.17176 37.1783 2.02996 36.8122 2.02996C36.4461 2.02996 36.1161 2.17434 35.8222 2.46309C35.5283 2.74669 35.3813 3.11795 35.3813 3.57687Z" fill="white"/>
<path d="M42.9946 0.923913C43.1287 0.789847 43.273 0.722814 43.4277 0.722814C43.5876 0.722814 43.7113 0.735705 43.799 0.761487C43.8866 0.787269 43.9537 0.818207 44.0001 0.854302C44.0465 0.88524 44.0826 0.939382 44.1084 1.01673C44.1341 1.10439 44.147 1.24103 44.147 1.42666V5.73482C44.147 5.85341 44.1419 5.94365 44.1316 6.00553C44.1264 6.06225 44.1032 6.12928 44.062 6.20662C43.9898 6.34585 43.7887 6.41546 43.4587 6.41546C43.139 6.41546 42.9404 6.34842 42.8631 6.21436C42.8218 6.13701 42.7961 6.0674 42.7858 6.00553C42.7806 5.93849 42.778 5.8431 42.778 5.71935V2.9581L42.6775 3.05092C42.4661 3.21077 42.2856 3.29069 42.1361 3.29069C41.9865 3.29069 41.8292 3.20045 41.6642 3.01998C41.5044 2.83951 41.4245 2.67966 41.4245 2.54044C41.4245 2.40122 41.5173 2.2491 41.7029 2.0841L42.9714 0.939382L42.9946 0.923913Z" fill="white"/>
<path d="M44.4195 1.86753C44.4195 1.46018 44.5587 1.12501 44.8372 0.862036C45.1208 0.593905 45.443 0.459839 45.804 0.459839C46.1649 0.459839 46.4846 0.591327 46.7631 0.854302C47.0415 1.11728 47.1807 1.45502 47.1807 1.86753C47.1807 2.28004 47.0364 2.61521 46.7476 2.87302C46.464 3.12569 46.1469 3.25202 45.7963 3.25202C45.4508 3.25202 45.1337 3.12311 44.8449 2.86529C44.5613 2.60231 44.4195 2.26973 44.4195 1.86753ZM45.4637 2.23106C45.572 2.31356 45.6828 2.35481 45.7963 2.35481C45.9097 2.35481 46.0206 2.31356 46.1288 2.23106C46.2371 2.14855 46.2913 2.0248 46.2913 1.8598C46.2913 1.68964 46.2397 1.5633 46.1366 1.4808C46.0335 1.3983 45.9226 1.35705 45.804 1.35705C45.6854 1.35705 45.572 1.40088 45.4637 1.48854C45.3605 1.57104 45.309 1.69479 45.309 1.8598C45.309 2.0248 45.3605 2.14855 45.4637 2.23106Z" fill="white"/>
<path d="M1.41527 10.7228L2.84616 10.7305C3.59384 10.7305 4.25127 11.0013 4.81848 11.5427C5.38568 12.0789 5.66928 12.7415 5.66928 13.5305C5.66928 14.3142 5.39083 14.9871 4.83395 15.5492C4.28221 16.1112 3.61188 16.3923 2.82296 16.3923H1.40753C1.09299 16.3923 0.897049 16.3278 0.819703 16.1989C0.757827 16.0906 0.726889 15.9256 0.726889 15.7039V11.4035C0.726889 11.2797 0.729467 11.1895 0.734623 11.1327C0.744936 11.076 0.770718 11.009 0.811969 10.9316C0.884158 10.7924 1.08526 10.7228 1.41527 10.7228ZM2.84616 15.0232C3.21742 15.0232 3.55258 14.8866 3.85166 14.6133C4.15073 14.3349 4.30026 13.9868 4.30026 13.5691C4.30026 13.1515 4.1533 12.8034 3.85939 12.525C3.57063 12.2414 3.23031 12.0996 2.83843 12.0996H2.09591V15.0232H2.84616Z" fill="white"/>
<path d="M8.60147 10.6609C9.36461 10.6609 10.0272 10.9368 10.5893 11.4885C11.1513 12.0403 11.4323 12.7261 11.4323 13.5459C11.4323 14.3606 11.1642 15.0568 10.6279 15.6343C10.0917 16.2066 9.43164 16.4928 8.64787 16.4928C7.8641 16.4928 7.19635 16.2092 6.64462 15.642C6.09804 15.0748 5.82476 14.3993 5.82476 13.6155C5.82476 13.1876 5.9021 12.7879 6.05679 12.4167C6.21148 12.0403 6.41774 11.7257 6.67556 11.4731C6.93338 11.2204 7.22987 11.0219 7.56503 10.8775C7.9002 10.7331 8.24568 10.6609 8.60147 10.6609ZM7.19377 13.5769C7.19377 14.0358 7.34073 14.4096 7.63464 14.6984C7.93371 14.982 8.2663 15.1238 8.6324 15.1238C8.99851 15.1238 9.32852 14.9846 9.62243 14.7061C9.91634 14.4277 10.0633 14.0538 10.0633 13.5846C10.0633 13.1154 9.91376 12.739 9.61469 12.4554C9.32078 12.1718 8.99077 12.03 8.62467 12.03C8.25857 12.03 7.92856 12.1743 7.63464 12.4631C7.34073 12.7467 7.19377 13.118 7.19377 13.5769Z" fill="white"/>
<path d="M17.4678 13.3603C17.772 13.7212 17.9241 14.126 17.9241 14.5746C17.9138 15.0903 17.7359 15.5234 17.3904 15.874C17.0501 16.2195 16.635 16.3923 16.1451 16.3923H14.111C13.75 16.3923 13.5386 16.2943 13.4767 16.0983C13.4458 16.0107 13.4303 15.8766 13.4303 15.6961V11.4035C13.4303 11.2797 13.4329 11.1895 13.438 11.1327C13.4484 11.076 13.4741 11.009 13.5154 10.9316C13.5876 10.7924 13.7887 10.7228 14.1187 10.7228H16.0678C16.5422 10.7228 16.9392 10.8878 17.2589 11.2178C17.5941 11.553 17.7617 11.9552 17.7617 12.4244C17.7617 12.7647 17.6637 13.0767 17.4678 13.3603ZM16.5551 14.4973C16.5551 14.3735 16.5396 14.2756 16.5087 14.2034C16.4829 14.1312 16.4365 14.0796 16.3695 14.0487C16.2663 14.0074 16.1219 13.9868 15.9363 13.9868C15.7507 13.9868 15.6115 13.9507 15.5186 13.8785C15.4258 13.8063 15.3794 13.6594 15.3794 13.4376C15.3794 13.2108 15.4258 13.0612 15.5186 12.989C15.6166 12.9169 15.7765 12.8808 15.9982 12.8808C16.2044 12.8808 16.3282 12.8266 16.3695 12.7183C16.3849 12.6616 16.3927 12.5688 16.3927 12.4399C16.3927 12.311 16.3488 12.2207 16.2612 12.1692C16.1787 12.1176 16.0523 12.0918 15.8822 12.0918H14.7993V15.0232H16.0678C16.3927 15.0232 16.5551 14.8479 16.5551 14.4973Z" fill="white"/>
<path d="M22.5377 15.4409C22.615 15.6265 22.6537 15.7606 22.6537 15.8431C22.6537 16.039 22.4938 16.204 22.1741 16.3381C22.0091 16.4103 21.8751 16.4464 21.7719 16.4464C21.674 16.4464 21.5915 16.4232 21.5244 16.3768C21.4625 16.3252 21.4161 16.2737 21.3852 16.2221C21.3336 16.1241 21.1325 15.6575 20.7819 14.8221L20.5421 14.8376H19.5676V15.7116C19.5676 15.8302 19.5624 15.9204 19.5521 15.9823C19.547 16.039 19.5237 16.1061 19.4825 16.1834C19.4103 16.3226 19.2092 16.3923 18.8792 16.3923C18.5183 16.3923 18.3068 16.2969 18.245 16.1061C18.214 16.0184 18.1986 15.8844 18.1986 15.7039V11.4112C18.1986 11.2926 18.2011 11.2049 18.2063 11.1482C18.2166 11.0863 18.2424 11.0167 18.2836 10.9394C18.3558 10.8002 18.5569 10.7305 18.8869 10.7305H20.5576C21.0114 10.7305 21.4522 10.8956 21.8802 11.2256C22.0865 11.3854 22.2566 11.602 22.3907 11.8753C22.5248 12.1486 22.5918 12.4528 22.5918 12.7879C22.5918 13.3706 22.3984 13.8502 22.0117 14.2266C22.1251 14.4999 22.3005 14.9046 22.5377 15.4409ZM19.5676 13.4686H20.5576C20.7071 13.4686 20.8567 13.4119 21.0062 13.2984C21.1557 13.185 21.2305 13.0148 21.2305 12.7879C21.2305 12.5611 21.1557 12.3909 21.0062 12.2775C20.8567 12.1589 20.702 12.0996 20.5421 12.0996H19.5676V13.4686Z" fill="white"/>
<path d="M26.1177 11.1327L28.206 15.4486C28.2937 15.624 28.3375 15.7554 28.3375 15.8431C28.3375 16.0287 28.188 16.1963 27.8889 16.3458C27.7136 16.4335 27.5743 16.4773 27.4712 16.4773C27.3732 16.4773 27.2907 16.4541 27.2237 16.4077C27.1618 16.3613 27.1154 16.3123 27.0845 16.2608C27.0587 16.2092 27.02 16.1319 26.9685 16.0287L26.5663 15.1934H24.4238L24.0216 16.0287C23.97 16.1319 23.9288 16.2066 23.8978 16.253C23.8721 16.2994 23.8257 16.3484 23.7586 16.4C23.6967 16.4464 23.6142 16.4696 23.5111 16.4696C23.4131 16.4696 23.2765 16.4258 23.1012 16.3381C22.8021 16.1937 22.6526 16.0287 22.6526 15.8431C22.6526 15.7554 22.6964 15.624 22.7841 15.4486L24.8724 11.125C24.9291 11.0064 25.0142 10.911 25.1276 10.8388C25.2462 10.7666 25.37 10.7305 25.4989 10.7305C25.7773 10.7305 25.9836 10.8646 26.1177 11.1327ZM25.4912 12.989L24.9807 14.0487H26.0094L25.4912 12.989Z" fill="white"/>
<path d="M28.3791 15.6033C28.245 15.4383 28.178 15.2914 28.178 15.1625C28.178 15.0284 28.2888 14.8531 28.5105 14.6365C28.6395 14.5128 28.7761 14.4509 28.9205 14.4509C29.0649 14.4509 29.266 14.5798 29.5238 14.8376C29.596 14.9253 29.6991 15.0103 29.8332 15.0928C29.9672 15.1702 30.091 15.2089 30.2044 15.2089C30.684 15.2089 30.9237 15.0129 30.9237 14.621C30.9237 14.5024 30.8567 14.4045 30.7226 14.3271C30.5937 14.2446 30.4313 14.1853 30.2354 14.1492C30.0394 14.1131 29.828 14.0564 29.6011 13.9791C29.3742 13.8966 29.1628 13.8012 28.9669 13.6929C28.7709 13.5846 28.6059 13.4144 28.4719 13.1824C28.343 12.9452 28.2785 12.6616 28.2785 12.3316C28.2785 11.8778 28.4461 11.4834 28.7813 11.1482C29.1216 10.8079 29.5831 10.6377 30.1657 10.6377C30.4751 10.6377 30.7562 10.679 31.0088 10.7615C31.2666 10.8388 31.4445 10.9188 31.5425 11.0013L31.7359 11.1482C31.8957 11.2978 31.9756 11.4241 31.9756 11.5272C31.9756 11.6303 31.9138 11.7721 31.79 11.9526C31.6147 12.2104 31.4342 12.3393 31.2486 12.3393C31.1403 12.3393 31.0062 12.2878 30.8464 12.1846C30.8309 12.1743 30.8 12.1486 30.7536 12.1073C30.7123 12.0661 30.6737 12.0325 30.6376 12.0068C30.5293 11.9397 30.39 11.9062 30.2199 11.9062C30.0549 11.9062 29.9157 11.9475 29.8022 12.03C29.6939 12.1073 29.6398 12.2182 29.6398 12.3625C29.6398 12.5018 29.7043 12.6152 29.8332 12.7029C29.9672 12.7905 30.1322 12.8498 30.3282 12.8808C30.5241 12.9117 30.7381 12.9607 30.9701 13.0277C31.2022 13.0896 31.4162 13.1669 31.6121 13.2598C31.8081 13.3526 31.9705 13.515 32.0994 13.747C32.2335 13.9739 32.3005 14.2549 32.3005 14.5901C32.3005 14.9253 32.2335 15.2218 32.0994 15.4796C31.9653 15.7322 31.79 15.9282 31.5734 16.0674C31.1558 16.3407 30.7097 16.4773 30.2354 16.4773C29.993 16.4773 29.7635 16.449 29.547 16.3923C29.3304 16.3304 29.1551 16.2556 29.021 16.168C28.7477 16.0029 28.557 15.8431 28.4487 15.6884L28.3791 15.6033Z" fill="white"/>
<path d="M32.5713 11.4112C32.5713 11.2926 32.5738 11.2049 32.579 11.1482C32.5893 11.0863 32.6151 11.0167 32.6563 10.9394C32.7285 10.8002 32.9296 10.7305 33.2596 10.7305C33.6206 10.7305 33.8346 10.8259 33.9016 11.0167C33.9274 11.1044 33.9403 11.2385 33.9403 11.4189V15.7193C33.9403 15.8431 33.9351 15.9333 33.9248 15.9901C33.9197 16.0468 33.8964 16.1138 33.8552 16.1912C33.783 16.3304 33.5819 16.4 33.2519 16.4C32.891 16.4 32.6795 16.302 32.6177 16.1061C32.5867 16.0236 32.5713 15.8921 32.5713 15.7116V11.4112Z" fill="white"/>
<path d="M35.6948 15.2553H37.7986C37.9687 15.2553 38.0925 15.2759 38.1698 15.3171C38.2472 15.3532 38.2987 15.4125 38.3245 15.495C38.3503 15.5775 38.3632 15.6884 38.3632 15.8276C38.3632 15.9617 38.3503 16.07 38.3245 16.1525C38.2987 16.235 38.2549 16.2917 38.193 16.3226C38.0951 16.3742 37.961 16.4 37.7908 16.4H35.0064C34.6454 16.4 34.434 16.302 34.3721 16.1061C34.3412 16.0236 34.3257 15.8921 34.3257 15.7116V11.4112C34.3257 11.2926 34.3283 11.2049 34.3335 11.1482C34.3438 11.0863 34.3696 11.0167 34.4108 10.9394C34.483 10.8002 34.6841 10.7305 35.0141 10.7305C35.3751 10.7305 35.5891 10.8259 35.6561 11.0167C35.6819 11.1044 35.6948 11.2385 35.6948 11.4189V15.2553Z" fill="white"/>
<path d="M41.7265 15.031H44.1088C44.2274 15.031 44.315 15.0361 44.3717 15.0464C44.4336 15.0516 44.5032 15.0748 44.5806 15.116C44.7198 15.1882 44.7894 15.3893 44.7894 15.7193C44.7894 16.0803 44.694 16.2917 44.5032 16.3536C44.4156 16.3845 44.2815 16.4 44.101 16.4H41.0381C40.6772 16.4 40.4658 16.302 40.4039 16.1061C40.373 16.0236 40.3575 15.8921 40.3575 15.7116V11.4112C40.3575 11.1482 40.4065 10.9703 40.5044 10.8775C40.6024 10.7795 40.788 10.7305 41.0613 10.7305H44.1088C44.2274 10.7305 44.315 10.7357 44.3717 10.746C44.4336 10.7512 44.5032 10.7744 44.5806 10.8156C44.7198 10.8878 44.7894 11.0889 44.7894 11.4189C44.7894 11.7799 44.694 11.9913 44.5032 12.0532C44.4156 12.0841 44.2815 12.0996 44.101 12.0996H41.7265V12.8808H43.258C43.3766 12.8808 43.4642 12.8859 43.5209 12.8962C43.5828 12.9014 43.6524 12.9246 43.7298 12.9658C43.869 13.038 43.9386 13.2391 43.9386 13.5691C43.9386 13.9301 43.8406 14.1415 43.6447 14.2034C43.557 14.2343 43.423 14.2498 43.2425 14.2498H41.7265V15.031Z" fill="white"/>
<path d="M49.4427 10.6609C50.2059 10.6609 50.8685 10.9368 51.4305 11.4885C51.9925 12.0403 52.2736 12.7261 52.2736 13.5459C52.2736 14.3606 52.0054 15.0568 51.4692 15.6343C50.9329 16.2066 50.2729 16.4928 49.4891 16.4928C48.7053 16.4928 48.0376 16.2092 47.4859 15.642C46.9393 15.0748 46.666 14.3993 46.666 13.6155C46.666 13.1876 46.7433 12.7879 46.898 12.4167C47.0527 12.0403 47.259 11.7257 47.5168 11.4731C47.7746 11.2204 48.0711 11.0219 48.4063 10.8775C48.7414 10.7331 49.0869 10.6609 49.4427 10.6609ZM48.035 13.5769C48.035 14.0358 48.182 14.4096 48.4759 14.6984C48.775 14.982 49.1075 15.1238 49.4736 15.1238C49.8398 15.1238 50.1698 14.9846 50.4637 14.7061C50.7576 14.4277 50.9045 14.0538 50.9045 13.5846C50.9045 13.1154 50.755 12.739 50.4559 12.4554C50.162 12.1718 49.832 12.03 49.4659 12.03C49.0998 12.03 48.7698 12.1743 48.4759 12.4631C48.182 12.7467 48.035 13.118 48.035 13.5769Z" fill="white"/>
<path d="M5.23216 25.0387C5.44357 25.0387 5.5931 25.0645 5.68076 25.116C5.77358 25.1625 5.83545 25.2372 5.86639 25.3404C5.89733 25.4383 5.9128 25.5698 5.9128 25.7348C5.9128 25.8947 5.89475 26.0236 5.85866 26.1215C5.82772 26.2195 5.77358 26.2865 5.69623 26.3226C5.58279 26.3845 5.42294 26.4155 5.21669 26.4155H2.19247C2.00684 26.4155 1.84699 26.3458 1.71293 26.2066C1.57886 26.0674 1.51183 25.905 1.51183 25.7193C1.51183 25.4409 1.60722 25.1857 1.79801 24.9536C1.99395 24.7164 2.22856 24.5153 2.50185 24.3503C2.77514 24.1802 3.04843 24.0152 3.32172 23.8553C3.595 23.6903 3.82704 23.5047 4.01783 23.2984C4.21377 23.0922 4.31174 22.873 4.31174 22.641C4.31174 22.5946 4.29369 22.5301 4.2576 22.4476C4.2215 22.36 4.18025 22.2904 4.13385 22.2388C4.0926 22.1821 4.02556 22.1305 3.93275 22.0841C3.83993 22.0377 3.71102 22.0145 3.54602 22.0145C3.38101 22.0145 3.23664 22.0764 3.11288 22.2001C2.99429 22.3187 2.92725 22.4373 2.91178 22.5559L2.88085 22.7338V22.7802C2.88085 22.8937 2.87569 22.9787 2.86538 23.0354C2.86022 23.0922 2.83702 23.1566 2.79577 23.2288C2.71842 23.3526 2.51732 23.4144 2.19247 23.4144C1.83152 23.4144 1.61753 23.3165 1.5505 23.1205C1.52472 23.038 1.51183 22.9065 1.51183 22.7261C1.51183 22.1898 1.70261 21.7103 2.08419 21.2874C2.47091 20.8595 2.97366 20.6455 3.59243 20.6455C4.21635 20.6455 4.72167 20.862 5.1084 21.2952C5.49513 21.7232 5.68849 22.213 5.68849 22.7647C5.68849 23.0587 5.62404 23.3371 5.49513 23.6001C5.36622 23.8631 5.21153 24.0745 5.03106 24.2343C4.64948 24.5746 4.30916 24.8041 4.01009 24.9227L3.81673 25V25.0387H5.23216Z" fill="white"/>
<path d="M5.99304 21.8675C5.99304 21.4602 6.13227 21.125 6.41071 20.862C6.69431 20.5939 7.01658 20.4598 7.37753 20.4598C7.73848 20.4598 8.05817 20.5913 8.33662 20.8543C8.61506 21.1173 8.75428 21.455 8.75428 21.8675C8.75428 22.28 8.60991 22.6152 8.32115 22.873C8.03755 23.1257 7.72043 23.252 7.3698 23.252C7.02432 23.252 6.7072 23.1231 6.41845 22.8653C6.13484 22.6023 5.99304 22.2697 5.99304 21.8675ZM7.03721 22.2311C7.14549 22.3136 7.25636 22.3548 7.3698 22.3548C7.48324 22.3548 7.5941 22.3136 7.70238 22.2311C7.81067 22.1486 7.86481 22.0248 7.86481 21.8598C7.86481 21.6896 7.81325 21.5633 7.71012 21.4808C7.60699 21.3983 7.49613 21.357 7.37753 21.357C7.25893 21.357 7.14549 21.4009 7.03721 21.4885C6.93408 21.571 6.88252 21.6948 6.88252 21.8598C6.88252 22.0248 6.93408 22.1486 7.03721 22.2311Z" fill="white"/>
<path d="M11.4394 20.7228L12.8703 20.7305C13.618 20.7305 14.2754 21.0013 14.8426 21.5427C15.4098 22.0789 15.6934 22.7415 15.6934 23.5305C15.6934 24.3142 15.415 24.9871 14.8581 25.5492C14.3063 26.1112 13.636 26.3923 12.8471 26.3923H11.4317C11.1171 26.3923 10.9212 26.3278 10.8438 26.1989C10.782 26.0906 10.751 25.9256 10.751 25.7039V21.4035C10.751 21.2797 10.7536 21.1895 10.7587 21.1327C10.7691 21.076 10.7948 21.009 10.8361 20.9316C10.9083 20.7924 11.1094 20.7228 11.4394 20.7228ZM12.8703 25.0232C13.2415 25.0232 13.5767 24.8866 13.8758 24.6133C14.1748 24.3349 14.3244 23.9868 14.3244 23.5691C14.3244 23.1515 14.1774 22.8034 13.8835 22.525C13.5948 22.2414 13.2544 22.0996 12.8626 22.0996H12.12V25.0232H12.8703Z" fill="white"/>
<path d="M18.6256 20.6609C19.3887 20.6609 20.0513 20.9368 20.6134 21.4885C21.1754 22.0403 21.4564 22.7261 21.4564 23.5459C21.4564 24.3606 21.1883 25.0568 20.652 25.6343C20.1158 26.2066 19.4558 26.4928 18.672 26.4928C17.8882 26.4928 17.2205 26.2092 16.6687 25.642C16.1222 25.0748 15.8489 24.3993 15.8489 23.6155C15.8489 23.1876 15.9262 22.7879 16.0809 22.4167C16.2356 22.0403 16.4419 21.7257 16.6997 21.4731C16.9575 21.2204 17.254 21.0219 17.5892 20.8775C17.9243 20.7331 18.2698 20.6609 18.6256 20.6609ZM17.2179 23.5769C17.2179 24.0358 17.3649 24.4096 17.6588 24.6984C17.9578 24.982 18.2904 25.1238 18.6565 25.1238C19.0226 25.1238 19.3526 24.9846 19.6466 24.7061C19.9405 24.4277 20.0874 24.0538 20.0874 23.5846C20.0874 23.1154 19.9379 22.739 19.6388 22.4554C19.3449 22.1718 19.0149 22.03 18.6488 22.03C18.2827 22.03 17.9527 22.1743 17.6588 22.4631C17.3649 22.7467 17.2179 23.118 17.2179 23.5769Z" fill="white"/>
<path d="M29.4797 20.9471C29.5209 21.0245 29.5441 21.0941 29.5493 21.156C29.5596 21.2178 29.5647 21.3081 29.5647 21.4267V25.7193C29.5647 26.0751 29.4668 26.284 29.2708 26.3458C29.1729 26.3768 29.0491 26.3923 28.8996 26.3923C28.75 26.3923 28.6314 26.3794 28.5438 26.3536C28.4561 26.3278 28.3891 26.2969 28.3427 26.2608C28.2963 26.2247 28.2602 26.1731 28.2344 26.1061C28.2086 26.0184 28.1957 25.8843 28.1957 25.7039V23.1128C28.0668 23.2726 27.8786 23.5279 27.6311 23.8785C27.3836 24.224 27.2263 24.4406 27.1593 24.5282C27.0923 24.6159 27.0459 24.6778 27.0201 24.7139C26.9943 24.7448 26.9298 24.7912 26.8267 24.8531C26.7287 24.9098 26.6205 24.9382 26.5019 24.9382C26.3884 24.9382 26.2827 24.9124 26.1847 24.8608C26.0919 24.8041 26.0249 24.7499 25.9836 24.6984L25.9218 24.6133C25.8186 24.4844 25.615 24.2111 25.3107 23.7934C25.0065 23.3706 24.8415 23.1437 24.8157 23.1128V25.7193C24.8157 25.8379 24.8106 25.9282 24.8003 25.9901C24.7951 26.0468 24.7719 26.1112 24.7306 26.1834C24.6533 26.3226 24.4522 26.3923 24.1273 26.3923C23.8128 26.3923 23.6169 26.3226 23.5395 26.1834C23.4983 26.1112 23.4725 26.0442 23.4622 25.9823C23.457 25.9204 23.4544 25.8276 23.4544 25.7039V21.4112C23.4544 21.2926 23.457 21.2049 23.4622 21.1482C23.4725 21.0863 23.4983 21.0167 23.5395 20.9394C23.6169 20.8053 23.818 20.7383 24.1428 20.7383C24.282 20.7383 24.4006 20.7563 24.4986 20.7924C24.6017 20.8234 24.6688 20.8569 24.6997 20.893L24.7461 20.9394L26.5019 23.2443C27.3784 22.0841 27.9637 21.3184 28.2576 20.9471C28.3453 20.8079 28.5515 20.7383 28.8764 20.7383C29.2064 20.7383 29.4075 20.8079 29.4797 20.9471Z" fill="white"/>
<path d="M33.6572 20.9394C33.7088 20.8569 33.7836 20.8002 33.8815 20.7692C33.9795 20.7383 34.1007 20.7228 34.2451 20.7228C34.3946 20.7228 34.5132 20.7357 34.6009 20.7615C34.6885 20.7873 34.7556 20.8182 34.802 20.8543C34.8484 20.8904 34.8819 20.9445 34.9025 21.0167C34.9334 21.1044 34.9489 21.2385 34.9489 21.4189V23.7548C34.9489 24.4354 34.7375 25.0542 34.3147 25.6111C34.1084 25.874 33.8429 26.088 33.518 26.253C33.1932 26.4129 32.8322 26.4928 32.4352 26.4928C32.0433 26.4928 31.6849 26.4103 31.3601 26.2453C31.0404 26.0803 30.78 25.8637 30.5789 25.5956C30.1612 25.049 29.9524 24.4303 29.9524 23.7393V21.4112C29.9524 21.2874 29.955 21.1972 29.9601 21.1405C29.9704 21.0786 29.9962 21.009 30.0375 20.9316C30.0787 20.8543 30.1483 20.8002 30.2463 20.7692C30.3443 20.7383 30.4758 20.7228 30.6408 20.7228C30.8058 20.7228 30.9373 20.7383 31.0352 20.7692C31.1332 20.8002 31.2002 20.8543 31.2363 20.9316C31.2982 21.0502 31.3291 21.2127 31.3291 21.4189V23.7393C31.3291 24.0538 31.4065 24.3529 31.5612 24.6365C31.6385 24.7809 31.7545 24.8969 31.9092 24.9846C32.0639 25.0722 32.247 25.116 32.4584 25.116C32.8348 25.116 33.1158 24.9768 33.3015 24.6984C33.4871 24.4199 33.5799 24.0977 33.5799 23.7316V21.3648C33.5799 21.1637 33.6057 21.0219 33.6572 20.9394Z" fill="white"/>
<path d="M38.9909 20.9703C39.0425 20.8775 39.1172 20.8156 39.2152 20.7847C39.3132 20.7538 39.4343 20.7383 39.5787 20.7383C39.7283 20.7383 39.8469 20.7512 39.9345 20.777C40.0273 20.8027 40.0944 20.8337 40.1356 20.8698C40.182 20.9059 40.2155 20.96 40.2362 21.0322C40.2671 21.1147 40.2826 21.2462 40.2826 21.4267V25.7193C40.2826 25.8431 40.2774 25.9333 40.2671 25.9901C40.2619 26.0468 40.2387 26.1138 40.1975 26.1912C40.1253 26.3304 39.9242 26.4 39.5942 26.4C39.3931 26.4 39.2539 26.3845 39.1765 26.3536C39.0992 26.3226 39.0347 26.2737 38.9832 26.2066C37.823 24.6597 37.0598 23.6491 36.6937 23.1747V25.7193C36.6937 25.8431 36.6886 25.9333 36.6783 25.9901C36.6731 26.0468 36.6499 26.1138 36.6086 26.1912C36.5365 26.3304 36.3354 26.4 36.0053 26.4C35.6857 26.4 35.4897 26.3304 35.4175 26.1912C35.3763 26.1138 35.3505 26.0442 35.3402 25.9823C35.335 25.9204 35.3324 25.8302 35.3324 25.7116V21.3957C35.3324 21.1998 35.3556 21.058 35.4021 20.9703C35.4536 20.8775 35.5284 20.8156 35.6264 20.7847C35.7243 20.7538 35.8507 20.7383 36.0053 20.7383C36.16 20.7383 36.2812 20.7538 36.3689 20.7847C36.4617 20.8105 36.5261 20.8414 36.5622 20.8775C36.5829 20.893 36.6422 20.96 36.7401 21.0786C37.8281 22.5585 38.5552 23.5356 38.9213 24.01V21.3957C38.9213 21.1998 38.9445 21.058 38.9909 20.9703Z" fill="white"/>
<path d="M41.3556 20.7228L42.7865 20.7305C43.5341 20.7305 44.1916 21.0013 44.7588 21.5427C45.326 22.0789 45.6096 22.7415 45.6096 23.5305C45.6096 24.3142 45.3311 24.9871 44.7742 25.5492C44.2225 26.1112 43.5522 26.3923 42.7632 26.3923H41.3478C41.0333 26.3923 40.8373 26.3278 40.76 26.1989C40.6981 26.0906 40.6672 25.9256 40.6672 25.7039V21.4035C40.6672 21.2797 40.6698 21.1895 40.6749 21.1327C40.6852 21.076 40.711 21.009 40.7523 20.9316C40.8245 20.7924 41.0255 20.7228 41.3556 20.7228ZM42.7865 25.0232C43.1577 25.0232 43.4929 24.8866 43.7919 24.6133C44.091 24.3349 44.2406 23.9868 44.2406 23.5691C44.2406 23.1515 44.0936 22.8034 43.7997 22.525C43.5109 22.2414 43.1706 22.0996 42.7787 22.0996H42.0362V25.0232H42.7865Z" fill="white"/>
<path d="M48.5418 20.6609C49.3049 20.6609 49.9675 20.9368 50.5295 21.4885C51.0916 22.0403 51.3726 22.7261 51.3726 23.5459C51.3726 24.3606 51.1045 25.0568 50.5682 25.6343C50.032 26.2066 49.3719 26.4928 48.5882 26.4928C47.8044 26.4928 47.1366 26.2092 46.5849 25.642C46.0383 25.0748 45.765 24.3993 45.765 23.6155C45.765 23.1876 45.8424 22.7879 45.9971 22.4167C46.1518 22.0403 46.358 21.7257 46.6158 21.4731C46.8737 21.2204 47.1702 21.0219 47.5053 20.8775C47.8405 20.7331 48.186 20.6609 48.5418 20.6609ZM47.1341 23.5769C47.1341 24.0358 47.281 24.4096 47.5749 24.6984C47.874 24.982 48.2066 25.1238 48.5727 25.1238C48.9388 25.1238 49.2688 24.9846 49.5627 24.7061C49.8566 24.4277 50.0036 24.0538 50.0036 23.5846C50.0036 23.1154 49.8541 22.739 49.555 22.4554C49.2611 22.1718 48.9311 22.03 48.565 22.03C48.1989 22.03 47.8688 22.1743 47.5749 22.4631C47.281 22.7467 47.1341 23.118 47.1341 23.5769Z" fill="white"/>
<path d="M1.995 35.031H4.37724C4.49584 35.031 4.5835 35.0361 4.64022 35.0464C4.70209 35.0516 4.77171 35.0748 4.84905 35.1161C4.98827 35.1882 5.05789 35.3893 5.05789 35.7193C5.05789 36.0803 4.96249 36.2917 4.77171 36.3536C4.68405 36.3845 4.54998 36.4 4.36951 36.4H1.30662C0.945672 36.4 0.734261 36.302 0.672384 36.1061C0.641446 36.0236 0.625977 35.8921 0.625977 35.7116V31.4112C0.625977 31.1482 0.674962 30.9703 0.772933 30.8775C0.870905 30.7795 1.05653 30.7305 1.32982 30.7305H4.37724C4.49584 30.7305 4.5835 30.7357 4.64022 30.746C4.70209 30.7512 4.77171 30.7744 4.84905 30.8156C4.98827 30.8878 5.05789 31.0889 5.05789 31.4189C5.05789 31.7799 4.96249 31.9913 4.77171 32.0532C4.68405 32.0841 4.54998 32.0996 4.36951 32.0996H1.995V32.8808H3.52644C3.64504 32.8808 3.7327 32.8859 3.78942 32.8962C3.85129 32.9014 3.9209 32.9246 3.99825 32.9658C4.13747 33.038 4.20708 33.2391 4.20708 33.5691C4.20708 33.9301 4.10911 34.1415 3.91317 34.2034C3.82551 34.2343 3.69144 34.2498 3.51097 34.2498H1.995V35.031Z" fill="white"/>
<path d="M11.3515 30.9471C11.3927 31.0245 11.4159 31.0941 11.4211 31.156C11.4314 31.2178 11.4365 31.3081 11.4365 31.4267V35.7193C11.4365 36.0751 11.3386 36.284 11.1426 36.3458C11.0447 36.3768 10.9209 36.3923 10.7714 36.3923C10.6218 36.3923 10.5032 36.3794 10.4156 36.3536C10.3279 36.3278 10.2609 36.2969 10.2145 36.2608C10.1681 36.2247 10.132 36.1731 10.1062 36.1061C10.0804 36.0184 10.0675 35.8843 10.0675 35.7039V33.1128C9.93862 33.2726 9.75041 33.5279 9.50291 33.8785C9.2554 34.224 9.09813 34.4406 9.0311 34.5282C8.96406 34.6159 8.91766 34.6778 8.89188 34.7139C8.86609 34.7448 8.80164 34.7912 8.69851 34.8531C8.60054 34.9098 8.49226 34.9382 8.37366 34.9382C8.26022 34.9382 8.15451 34.9124 8.05654 34.8608C7.96373 34.8041 7.89669 34.7499 7.85544 34.6984L7.79357 34.6133C7.69044 34.4844 7.48676 34.2111 7.18253 33.7934C6.87831 33.3706 6.7133 33.1437 6.68752 33.1128V35.7193C6.68752 35.8379 6.68237 35.9282 6.67205 35.9901C6.6669 36.0468 6.64369 36.1112 6.60244 36.1834C6.5251 36.3226 6.324 36.3923 5.99915 36.3923C5.68461 36.3923 5.48866 36.3226 5.41132 36.1834C5.37007 36.1112 5.34429 36.0442 5.33397 35.9823C5.32882 35.9204 5.32624 35.8276 5.32624 35.7039V31.4112C5.32624 31.2926 5.32882 31.2049 5.33397 31.1482C5.34429 31.0863 5.37007 31.0167 5.41132 30.9394C5.48866 30.8053 5.68976 30.7383 6.01462 30.7383C6.15384 30.7383 6.27243 30.7563 6.37041 30.7924C6.47353 30.8234 6.54057 30.8569 6.5715 30.893L6.61791 30.9394L8.37366 33.2443C9.25024 32.0841 9.83549 31.3184 10.1294 30.9471C10.2171 30.8079 10.4233 30.7383 10.7482 30.7383C11.0782 30.7383 11.2793 30.8079 11.3515 30.9471Z" fill="white"/>
<path d="M18.7229 30.8156C19.0271 30.9652 19.1792 31.1302 19.1792 31.3106C19.1792 31.3931 19.1405 31.5169 19.0632 31.6819L16.9285 36.0133C16.8717 36.1267 16.7841 36.2195 16.6655 36.2917C16.552 36.3587 16.4334 36.3923 16.3097 36.3923H16.2323C16.1034 36.3923 15.9797 36.3587 15.8611 36.2917C15.7476 36.2195 15.6626 36.1267 15.6058 36.0133L13.4711 31.6819C13.3938 31.5169 13.3551 31.3931 13.3551 31.3106C13.3551 31.1302 13.5072 30.9652 13.8114 30.8156C13.9816 30.728 14.1105 30.6841 14.1982 30.6841C14.291 30.6841 14.3606 30.6945 14.407 30.7151C14.4534 30.7357 14.4972 30.7718 14.5385 30.8234C14.5849 30.8852 14.6261 30.9549 14.6622 31.0322C14.7035 31.1044 14.804 31.3184 14.9639 31.6742C15.1237 32.0248 15.2939 32.3986 15.4744 32.7957C15.66 33.1927 15.8327 33.5691 15.9926 33.9249C16.1576 34.2756 16.2504 34.4715 16.271 34.5128L17.8179 31.125C17.8592 31.027 17.8953 30.9497 17.9262 30.893C18.019 30.7538 18.1325 30.6841 18.2665 30.6841C18.4006 30.6841 18.5527 30.728 18.7229 30.8156Z" fill="white"/>
<path d="M19.3742 31.4112C19.3742 31.2926 19.3767 31.2049 19.3819 31.1482C19.3922 31.0863 19.418 31.0167 19.4592 30.9394C19.5314 30.8002 19.7325 30.7305 20.0625 30.7305C20.4235 30.7305 20.6375 30.8259 20.7045 31.0167C20.7303 31.1044 20.7432 31.2385 20.7432 31.4189V35.7193C20.7432 35.8431 20.738 35.9333 20.7277 35.9901C20.7225 36.0468 20.6993 36.1138 20.6581 36.1912C20.5859 36.3304 20.3848 36.4 20.0548 36.4C19.6938 36.4 19.4824 36.302 19.4206 36.1061C19.3896 36.0236 19.3742 35.8921 19.3742 35.7116V31.4112Z" fill="white"/>
<path d="M21.2137 35.6033C21.0796 35.4383 21.0126 35.2914 21.0126 35.1625C21.0126 35.0284 21.1235 34.8531 21.3452 34.6365C21.4741 34.5128 21.6108 34.4509 21.7551 34.4509C21.8995 34.4509 22.1006 34.5798 22.3584 34.8376C22.4306 34.9253 22.5337 35.0103 22.6678 35.0928C22.8019 35.1702 22.9256 35.2089 23.0391 35.2089C23.5186 35.2089 23.7584 35.0129 23.7584 34.621C23.7584 34.5024 23.6913 34.4045 23.5573 34.3271C23.4284 34.2446 23.2659 34.1853 23.07 34.1492C22.8741 34.1131 22.6627 34.0564 22.4358 33.9791C22.2089 33.8966 21.9975 33.8012 21.8015 33.6929C21.6056 33.5846 21.4406 33.4144 21.3065 33.1824C21.1776 32.9452 21.1132 32.6616 21.1132 32.3316C21.1132 31.8778 21.2807 31.4834 21.6159 31.1482C21.9562 30.8079 22.4177 30.6377 23.0004 30.6377C23.3098 30.6377 23.5908 30.679 23.8435 30.7615C24.1013 30.8388 24.2792 30.9188 24.3771 31.0013L24.5705 31.1482C24.7304 31.2978 24.8103 31.4241 24.8103 31.5272C24.8103 31.6303 24.7484 31.7721 24.6247 31.9526C24.4493 32.2104 24.2689 32.3393 24.0832 32.3393C23.9749 32.3393 23.8409 32.2878 23.681 32.1846C23.6656 32.1743 23.6346 32.1486 23.5882 32.1073C23.547 32.0661 23.5083 32.0325 23.4722 32.0068C23.3639 31.9397 23.2247 31.9062 23.0545 31.9062C22.8895 31.9062 22.7503 31.9475 22.6369 32.03C22.5286 32.1073 22.4744 32.2182 22.4744 32.3625C22.4744 32.5018 22.5389 32.6152 22.6678 32.7029C22.8019 32.7905 22.9669 32.8498 23.1628 32.8808C23.3588 32.9117 23.5728 32.9607 23.8048 33.0277C24.0368 33.0896 24.2508 33.1669 24.4468 33.2598C24.6427 33.3526 24.8051 33.515 24.934 33.747C25.0681 33.9739 25.1351 34.2549 25.1351 34.5901C25.1351 34.9253 25.0681 35.2218 24.934 35.4796C24.8 35.7322 24.6247 35.9282 24.4081 36.0674C23.9904 36.3407 23.5444 36.4773 23.07 36.4773C22.8277 36.4773 22.5982 36.449 22.3816 36.3923C22.1651 36.3304 21.9897 36.2556 21.8557 36.1679C21.5824 36.0029 21.3916 35.8431 21.2833 35.6884L21.2137 35.6033Z" fill="white"/>
<path d="M25.4059 31.4112C25.4059 31.2926 25.4085 31.2049 25.4136 31.1482C25.424 31.0863 25.4497 31.0167 25.491 30.9394C25.5632 30.8002 25.7643 30.7305 26.0943 30.7305C26.4552 30.7305 26.6692 30.8259 26.7363 31.0167C26.762 31.1044 26.7749 31.2385 26.7749 31.4189V35.7193C26.7749 35.8431 26.7698 35.9333 26.7595 35.9901C26.7543 36.0468 26.7311 36.1138 26.6898 36.1912C26.6177 36.3304 26.4166 36.4 26.0865 36.4C25.7256 36.4 25.5142 36.302 25.4523 36.1061C25.4214 36.0236 25.4059 35.8921 25.4059 35.7116V31.4112Z" fill="white"/>
<path d="M27.5316 30.7228H31.8321C31.9971 30.7228 32.1182 30.7434 32.1956 30.7847C32.2729 30.8208 32.3245 30.8801 32.3503 30.9626C32.3761 31.0451 32.389 31.1534 32.389 31.2874C32.389 31.4215 32.3761 31.5298 32.3503 31.6123C32.3245 31.6896 32.2807 31.7438 32.2188 31.7747C32.126 31.8211 31.9945 31.8443 31.8243 31.8443H30.347V35.7348C30.347 35.8534 30.3419 35.9411 30.3316 35.9978C30.3264 36.0545 30.3032 36.1215 30.2619 36.1989C30.2259 36.2711 30.1588 36.3226 30.0608 36.3536C29.9629 36.3845 29.834 36.4 29.6741 36.4C29.5143 36.4 29.3854 36.3845 29.2874 36.3536C29.1946 36.3226 29.1275 36.2711 29.0863 36.1989C29.0502 36.1215 29.027 36.0545 29.0167 35.9978C29.0115 35.9359 29.0089 35.8457 29.0089 35.7271V31.8443H27.5239C27.3589 31.8443 27.2377 31.8263 27.1604 31.7902C27.083 31.7489 27.0315 31.6871 27.0057 31.6046C26.9799 31.5221 26.967 31.4138 26.967 31.2797C26.967 31.1456 26.9799 31.0399 27.0057 30.9626C27.0315 30.8801 27.0753 30.8234 27.1372 30.7924C27.23 30.746 27.3615 30.7228 27.5316 30.7228Z" fill="white"/>
<path d="M34.6943 31.1327L36.7826 35.4486C36.8703 35.624 36.9141 35.7554 36.9141 35.8431C36.9141 36.0287 36.7646 36.1963 36.4655 36.3458C36.2902 36.4335 36.151 36.4773 36.0478 36.4773C35.9499 36.4773 35.8674 36.4541 35.8003 36.4077C35.7384 36.3613 35.692 36.3123 35.6611 36.2608C35.6353 36.2092 35.5966 36.1319 35.5451 36.0287L35.1429 35.1934H33.0004L32.5982 36.0287C32.5466 36.1319 32.5054 36.2066 32.4745 36.253C32.4487 36.2994 32.4023 36.3484 32.3352 36.4C32.2734 36.4464 32.1909 36.4696 32.0877 36.4696C31.9898 36.4696 31.8531 36.4258 31.6778 36.3381C31.3787 36.1937 31.2292 36.0287 31.2292 35.8431C31.2292 35.7554 31.273 35.624 31.3607 35.4486L33.449 31.125C33.5057 31.0064 33.5908 30.911 33.7043 30.8388C33.8229 30.7666 33.9466 30.7305 34.0755 30.7305C34.354 30.7305 34.5602 30.8646 34.6943 31.1327ZM34.0678 32.989L33.5573 34.0487H34.586L34.0678 32.989Z" fill="white"/>
<path d="M38.8001 36.6088C38.8156 36.516 38.862 36.4464 38.9393 36.4C38.3721 36.2762 37.8539 35.9926 37.3847 35.5492C37.1475 35.3223 36.9567 35.0335 36.8123 34.6829C36.6731 34.3323 36.6035 33.9533 36.6035 33.5459C36.6035 33.1334 36.6705 32.7622 36.8046 32.4322C36.9387 32.1021 37.1088 31.8314 37.3151 31.62C37.5265 31.4086 37.7663 31.2281 38.0344 31.0786C38.5346 30.8002 39.0451 30.6609 39.5658 30.6609C39.8082 30.6609 40.0531 30.6996 40.3006 30.777C40.5481 30.8543 40.7363 30.9291 40.8653 31.0013L41.0586 31.1173C41.1463 31.1792 41.2159 31.2281 41.2675 31.2642C41.4015 31.3674 41.4686 31.4885 41.4686 31.6278C41.4686 31.7618 41.4144 31.9036 41.3061 32.0532C41.1102 32.3316 40.9323 32.4708 40.7724 32.4708C40.6848 32.4708 40.5507 32.4141 40.3702 32.3007C40.1537 32.1253 39.8649 32.0377 39.504 32.0377C39.1688 32.0377 38.8388 32.1537 38.5139 32.3857C38.3593 32.4992 38.2303 32.659 38.1272 32.8653C38.0241 33.0715 37.9725 33.3062 37.9725 33.5691C37.9725 33.827 38.0241 34.0616 38.1272 34.273C38.2303 34.4792 38.3644 34.6417 38.5294 34.7603C38.8491 34.9871 39.174 35.1006 39.504 35.1006C39.6638 35.1006 39.8134 35.08 39.9526 35.0387C40.097 34.9975 40.2001 34.9562 40.262 34.915L40.3548 34.8453L40.4089 34.8144C40.5739 34.7061 40.6977 34.652 40.7802 34.652C40.9349 34.652 41.105 34.7964 41.2907 35.0851C41.4041 35.2656 41.4608 35.4022 41.4608 35.495C41.4608 35.5879 41.4376 35.6678 41.3912 35.7348C41.3448 35.8018 41.2984 35.8534 41.252 35.8895C41.2107 35.9204 41.1437 35.9643 41.0509 36.021C40.7621 36.2273 40.4012 36.3665 39.968 36.4387C40.164 36.5985 40.262 36.8073 40.262 37.0652C40.262 37.323 40.1717 37.5241 39.9912 37.6685C39.8159 37.818 39.6277 37.8928 39.4266 37.8928C39.2926 37.8928 39.1894 37.8747 39.1172 37.8386C38.9213 37.7406 38.8182 37.6427 38.8079 37.5447L38.8001 37.506C38.8001 37.4442 38.8388 37.3668 38.9161 37.274C38.9935 37.1812 39.0579 37.1348 39.1095 37.1348C39.1662 37.1348 39.2126 37.1451 39.2487 37.1657C39.2848 37.1915 39.3132 37.207 39.3338 37.2121C39.3544 37.2327 39.3854 37.2431 39.4266 37.2431C39.4679 37.2431 39.5065 37.2276 39.5426 37.1966C39.5839 37.1657 39.6045 37.1219 39.6045 37.0652C39.6045 37.0084 39.5839 36.9646 39.5426 36.9337C39.5065 36.9027 39.4653 36.8873 39.4189 36.8873C39.3776 36.8873 39.3338 36.9053 39.2874 36.9414C39.241 36.9775 39.1765 36.9956 39.094 36.9956C39.0167 36.9956 38.9471 36.9414 38.8852 36.8331C38.8285 36.73 38.8001 36.6552 38.8001 36.6088Z" fill="white"/>
<path d="M45.4996 28.9903C45.6853 29.1192 45.7781 29.2429 45.7781 29.3615C45.7781 29.4337 45.7575 29.5033 45.7162 29.5704C45.675 29.6374 45.6466 29.6864 45.6311 29.7173C45.6157 29.7431 45.5796 29.7921 45.5229 29.8643C45.4661 29.9365 45.4017 30.0009 45.3295 30.0576C45.1335 30.202 44.935 30.2742 44.7339 30.2742C44.5328 30.2742 44.373 30.2407 44.2544 30.1737C44.1409 30.1066 44.0456 30.0396 43.9682 29.9726C43.896 29.9055 43.8367 29.872 43.7903 29.872C43.7181 29.872 43.6511 29.9029 43.5892 29.9648C43.4706 30.1711 43.3598 30.2742 43.2566 30.2742C43.1587 30.2742 43.0375 30.2123 42.8931 30.0886C42.7539 29.9648 42.6843 29.8643 42.6843 29.7869C42.6843 29.7044 42.7049 29.6297 42.7461 29.5626C42.7874 29.4956 42.8158 29.4492 42.8312 29.4234C42.8467 29.3925 42.8828 29.3435 42.9395 29.2764C43.0014 29.2043 43.0684 29.1398 43.1406 29.0831C43.3314 28.9439 43.5299 28.8743 43.7362 28.8743C43.9424 28.8743 44.1023 28.9078 44.2157 28.9748C44.3292 29.0367 44.422 29.1011 44.4942 29.1682C44.5663 29.23 44.6256 29.261 44.6721 29.261C44.7546 29.261 44.8216 29.23 44.8731 29.1682C44.9814 28.9722 45.0975 28.8743 45.2212 28.8743C45.2986 28.8743 45.3914 28.9129 45.4996 28.9903ZM44.8577 31.1327L46.946 35.4486C47.0337 35.624 47.0775 35.7554 47.0775 35.8431C47.0775 36.0287 46.928 36.1963 46.6289 36.3458C46.4536 36.4335 46.3144 36.4773 46.2112 36.4773C46.1133 36.4773 46.0308 36.4541 45.9637 36.4077C45.9018 36.3613 45.8554 36.3123 45.8245 36.2608C45.7987 36.2092 45.76 36.1319 45.7085 36.0287L45.3063 35.1934H43.1638L42.7616 36.0287C42.71 36.1319 42.6688 36.2066 42.6379 36.253C42.6121 36.2994 42.5657 36.3484 42.4986 36.4C42.4368 36.4464 42.3543 36.4696 42.2511 36.4696C42.1532 36.4696 42.0165 36.4258 41.8412 36.3381C41.5421 36.1937 41.3926 36.0287 41.3926 35.8431C41.3926 35.7554 41.4364 35.624 41.5241 35.4486L43.6124 31.125C43.6691 31.0064 43.7542 30.911 43.8677 30.8388C43.9863 30.7666 44.11 30.7305 44.2389 30.7305C44.5174 30.7305 44.7236 30.8646 44.8577 31.1327ZM44.2312 32.989L43.7207 34.0487H44.7494L44.2312 32.989Z" fill="white"/>
<path d="M49.5436 30.6609C50.3068 30.6609 50.9694 30.9368 51.5314 31.4885C52.0935 32.0403 52.3745 32.7261 52.3745 33.5459C52.3745 34.3606 52.1063 35.0568 51.5701 35.6343C51.0338 36.2066 50.3738 36.4928 49.59 36.4928C48.8063 36.4928 48.1385 36.2092 47.5868 35.642C47.0402 35.0748 46.7669 34.3993 46.7669 33.6155C46.7669 33.1876 46.8443 32.7879 46.999 32.4167C47.1536 32.0403 47.3599 31.7257 47.6177 31.4731C47.8755 31.2204 48.172 31.0219 48.5072 30.8775C48.8424 30.7331 49.1878 30.6609 49.5436 30.6609ZM48.1359 33.5769C48.1359 34.0358 48.2829 34.4096 48.5768 34.6984C48.8759 34.982 49.2085 35.1238 49.5746 35.1238C49.9407 35.1238 50.2707 34.9846 50.5646 34.7061C50.8585 34.4277 51.0055 34.0538 51.0055 33.5846C51.0055 33.1154 50.8559 32.739 50.5569 32.4554C50.2629 32.1718 49.9329 32.03 49.5668 32.03C49.2007 32.03 48.8707 32.1743 48.5768 32.4631C48.2829 32.7467 48.1359 33.118 48.1359 33.5769Z" fill="white"/>
</svg>
