<svg width="57" height="18" viewBox="0 0 57 18" fill="none" xmlns="http://www.w3.org/2000/svg">
<g clip-path="url(#clip0_63_1172)">
<path d="M37.027 0.02771C33.0946 0.02771 29.5804 2.06596 29.5804 5.83178C29.5804 10.1505 35.8129 10.4488 35.8129 12.6183C35.8129 13.5319 34.766 14.3496 32.978 14.3496C30.4404 14.3496 28.5438 13.207 28.5438 13.207L27.7323 17.0071C27.7323 17.0071 29.9171 17.9723 32.8179 17.9723C37.1172 17.9723 40.5003 15.834 40.5003 12.0037C40.5003 7.44027 34.2418 7.15085 34.2418 5.13711C34.2418 4.42149 35.1012 3.6374 36.8842 3.6374C38.8959 3.6374 40.5371 4.46841 40.5371 4.46841L41.3313 0.798123C41.3313 0.798123 39.5455 0.02771 37.027 0.02771ZM1.04914 0.304713L0.953918 0.858718C0.953918 0.858718 2.60829 1.1615 4.09833 1.76547C6.01687 2.45805 6.15354 2.86123 6.47665 4.1135L9.99761 17.6866H14.7175L21.9888 0.304713H17.2797L12.6075 12.1228L10.7009 2.10523C10.5261 0.95873 9.64043 0.304713 8.55634 0.304713H1.04914ZM23.8824 0.304713L20.1883 17.6866H24.6787L28.3598 0.304713H23.8824ZM48.9273 0.304713C47.8445 0.304713 47.2707 0.884432 46.8498 1.89748L40.271 17.6866H44.98L45.8911 15.0551H51.628L52.1821 17.6866H56.3371L52.7123 0.304713H48.9273ZM49.5397 5.00077L50.9355 11.5233H47.196L49.5397 5.00077Z" fill="#1434CB"/>
</g>
<defs>
<clipPath id="clip0_63_1172">
<rect width="55.4386" height="18" fill="white" transform="translate(0.926208)"/>
</clipPath>
</defs>
</svg>
